<?xml version="1.0" encoding="utf-8" standalone="no"?>
<!DOCTYPE svg PUBLIC "-//W3C//DTD SVG 1.1//EN"
  "http://www.w3.org/Graphics/SVG/1.1/DTD/svg11.dtd">
<svg xmlns:xlink="http://www.w3.org/1999/xlink" width="868.4pt" height="465.2pt" viewBox="0 0 868.4 465.2" xmlns="http://www.w3.org/2000/svg" version="1.1">
 <metadata>
  <rdf:RDF xmlns:dc="http://purl.org/dc/elements/1.1/" xmlns:cc="http://creativecommons.org/ns#" xmlns:rdf="http://www.w3.org/1999/02/22-rdf-syntax-ns#">
   <cc:Work>
    <dc:type rdf:resource="http://purl.org/dc/dcmitype/StillImage"/>
    <dc:date>2026-07-23T11:20:33.969436</dc:date>
    <dc:format>image/svg+xml</dc:format>
    <dc:creator>
     <cc:Agent>
      <dc:title>Matplotlib v3.11.1, https://matplotlib.org/</dc:title>
     </cc:Agent>
    </dc:creator>
   </cc:Work>
  </rdf:RDF>
 </metadata>
 <defs>
  <style type="text/css">*{stroke-linejoin: round; stroke-linecap: butt}</style>
 </defs>
 <g id="figure_1">
  <g id="patch_1">
   <path d="M 0 465.2 
L 868.4 465.2 
L 868.4 0 
L 0 0 
z
" style="fill: #ffffff"/>
  </g>
  <g id="axes_1">
   <g id="patch_2">
    <path d="M 100.026087 340.746465 
L 101.421269 340.317053 
L 102.81645 339.889245 
L 104.211632 339.464636 
L 105.606814 339.0448 
L 107.001995 338.631287 
L 108.397177 338.225609 
L 109.792359 337.829232 
L 111.18754 337.443571 
L 112.582722 337.069976 
L 113.977904 336.70973 
L 115.373085 336.36404 
L 116.768267 336.034028 
L 118.163449 335.720727 
L 119.55863 335.425075 
L 120.953812 335.147909 
L 122.348994 334.889961 
L 123.744175 334.651856 
L 125.139357 334.434103 
L 126.534539 334.237101 
L 127.92972 334.06113 
L 129.324902 333.906353 
L 130.720084 333.772816 
L 132.115265 333.660447 
L 133.510447 333.569059 
L 134.905629 333.498349 
L 136.30081 333.447902 
L 137.695992 333.417197 
L 139.091174 333.405604 
L 140.486355 333.412397 
L 141.881537 333.436751 
L 143.276719 333.477755 
L 144.6719 333.534412 
L 146.067082 333.605651 
L 147.462264 333.69033 
L 148.857445 333.787245 
L 150.252627 333.89514 
L 151.647809 334.012714 
L 153.04299 334.138628 
L 154.438172 334.271516 
L 155.833354 334.409992 
L 157.228535 334.552662 
L 158.623717 334.698129 
L 160.018899 334.845008 
L 161.41408 334.991927 
L 162.809262 335.137543 
L 164.204444 335.280548 
L 165.599625 335.419676 
L 166.994807 335.553715 
L 168.389989 335.68151 
L 169.78517 335.801974 
L 171.180352 335.914094 
L 172.575534 336.016938 
L 173.970715 336.10966 
L 175.365897 336.191506 
L 176.761079 336.261817 
L 178.15626 336.320038 
L 179.551442 336.365717 
L 180.946624 336.398508 
L 182.341805 336.418179 
L 183.736987 336.424603 
L 185.132169 336.417771 
L 186.52735 336.397781 
L 187.922532 336.364845 
L 189.317714 336.319284 
L 190.712895 336.261527 
L 192.108077 336.192109 
L 193.503259 336.111664 
L 194.89844 336.020926 
L 196.293622 335.920721 
L 197.688804 335.81196 
L 199.083985 335.69564 
L 200.479167 335.572828 
L 201.874349 335.444663 
L 203.26953 335.312343 
L 204.664712 335.177117 
L 206.059894 335.040283 
L 207.455075 334.903172 
L 208.850257 334.767142 
L 210.245439 334.633574 
L 211.64062 334.503855 
L 213.035802 334.379373 
L 214.430984 334.26151 
L 215.826165 334.151627 
L 217.221347 334.051062 
L 218.616529 333.961116 
L 220.01171 333.883046 
L 221.406892 333.818057 
L 222.802074 333.767294 
L 224.197255 333.731834 
L 225.592437 333.712677 
L 226.987619 333.710744 
L 228.3828 333.726865 
L 229.777982 333.761777 
L 231.173164 333.816117 
L 232.568345 333.890418 
L 233.963527 333.985105 
L 235.358709 334.100493 
L 236.75389 334.236781 
L 238.149072 334.394054 
L 239.544254 334.572278 
L 240.939435 334.771302 
L 242.334617 334.990861 
L 243.729799 335.230568 
L 245.12498 335.489926 
L 246.520162 335.768324 
L 247.915344 336.065042 
L 249.310525 336.379255 
L 250.705707 336.710036 
L 252.100889 337.056364 
L 253.49607 337.417126 
L 254.891252 337.791125 
L 256.286434 338.177089 
L 257.681615 338.573673 
L 259.076797 338.97947 
L 260.471979 339.393021 
L 261.86716 339.812817 
L 263.262342 340.237315 
L 264.657524 340.664942 
L 266.052705 341.094105 
L 267.447887 341.523201 
L 268.843069 341.950627 
L 270.23825 342.374786 
L 271.633432 342.7941 
L 273.028614 343.207017 
L 274.423795 343.61202 
L 275.818977 344.007638 
L 277.214159 344.392449 
L 278.60934 344.765095 
L 280.004522 345.124285 
L 281.399704 345.468804 
L 282.794885 345.79752 
L 284.190067 346.109388 
L 285.585249 346.40346 
L 286.98043 346.678887 
L 288.375612 346.934926 
L 289.770794 347.170939 
L 291.165975 347.386404 
L 292.561157 347.58091 
L 293.956339 347.754165 
L 295.35152 347.905992 
L 296.746702 348.036333 
L 298.141884 348.145248 
L 299.537065 348.232914 
L 300.932247 348.299621 
L 302.327429 348.345772 
L 303.72261 348.371882 
L 305.117792 348.378567 
L 306.512974 348.366548 
L 307.908155 348.33664 
L 309.303337 348.28975 
L 310.698519 348.226867 
L 312.0937 348.149059 
L 313.488882 348.057466 
L 314.884064 347.953287 
L 316.279245 347.837779 
L 317.674427 347.712244 
L 319.069609 347.578022 
L 320.46479 347.436484 
L 321.859972 347.28902 
L 323.255154 347.137029 
L 324.650335 346.981916 
L 326.045517 346.825077 
L 327.440699 346.667892 
L 328.83588 346.511716 
L 330.231062 346.35787 
L 331.626244 346.207634 
L 333.021425 346.062236 
L 334.416607 345.922847 
L 335.811789 345.790572 
L 337.20697 345.666442 
L 338.602152 345.551409 
L 339.997334 345.446339 
L 341.392515 345.352009 
L 342.787697 345.269096 
L 344.182879 345.198181 
L 345.57806 345.139738 
L 346.973242 345.094134 
L 348.368424 345.061629 
L 349.763605 345.042369 
L 351.158787 345.03639 
L 352.553969 345.043616 
L 353.94915 345.06386 
L 355.344332 345.096823 
L 356.739514 345.142099 
L 358.134695 345.199176 
L 359.529877 345.267442 
L 360.925059 345.346184 
L 362.32024 345.434597 
L 363.715422 345.531788 
L 365.110604 345.63678 
L 366.505785 345.748523 
L 367.900967 345.865896 
L 369.296149 345.987715 
L 370.69133 346.112744 
L 372.086512 346.239701 
L 373.481694 346.367265 
L 374.876875 346.494088 
L 376.272057 346.618798 
L 377.667239 346.740017 
L 379.06242 346.856361 
L 380.457602 346.966454 
L 381.852784 347.068937 
L 383.247965 347.162475 
L 384.643147 347.245768 
L 386.038329 347.317558 
L 387.43351 347.376637 
L 388.828692 347.421857 
L 390.223874 347.452137 
L 391.619056 347.46647 
L 393.014237 347.46393 
L 394.409419 347.443677 
L 395.804601 347.404967 
L 397.199782 347.347152 
L 398.594964 347.269688 
L 399.990146 347.17214 
L 401.385327 347.054182 
L 402.780509 346.915602 
L 404.175691 346.756301 
L 405.570872 346.576302 
L 406.966054 346.37574 
L 408.361236 346.15487 
L 409.756417 345.914063 
L 411.151599 345.653803 
L 412.546781 345.37469 
L 413.941962 345.077429 
L 415.337144 344.762833 
L 416.732326 344.431818 
L 418.127507 344.085393 
L 419.522689 343.724659 
L 420.917871 343.350804 
L 422.313052 342.965092 
L 423.708234 342.568857 
L 425.103416 342.163499 
L 426.498597 341.750472 
L 427.893779 341.331277 
L 429.288961 340.907454 
L 430.684142 340.480572 
L 432.079324 340.052221 
L 433.474506 339.624003 
L 434.869687 339.197522 
L 436.264869 338.774373 
L 437.660051 338.356138 
L 439.055232 337.944371 
L 440.450414 337.540593 
L 441.845596 337.146282 
L 443.240777 336.762862 
L 444.635959 336.391702 
L 446.031141 336.034098 
L 447.426322 335.691275 
L 448.821504 335.364375 
L 450.216686 335.054451 
L 451.611867 334.762463 
L 453.007049 334.48927 
L 454.402231 334.235629 
L 455.797412 334.002186 
L 457.192594 333.789479 
L 458.587776 333.597928 
L 459.982957 333.427839 
L 461.378139 333.279401 
L 462.773321 333.152684 
L 464.168502 333.04764 
L 465.563684 332.964104 
L 466.958866 332.901795 
L 468.354047 332.860322 
L 469.749229 332.839181 
L 471.144411 332.837763 
L 472.539592 332.855356 
L 473.934774 332.891152 
L 475.329956 332.944252 
L 476.725137 333.01367 
L 478.120319 333.098344 
L 479.515501 333.197137 
L 480.910682 333.308852 
L 482.305864 333.432231 
L 483.701046 333.565973 
L 485.096227 333.708735 
L 486.491409 333.859143 
L 487.886591 334.015804 
L 489.281772 334.177309 
L 490.676954 334.342248 
L 492.072136 334.509217 
L 493.467317 334.676824 
L 494.862499 334.843703 
L 496.257681 335.00852 
L 497.652862 335.169981 
L 499.048044 335.326843 
L 500.443226 335.477918 
L 501.838407 335.622084 
L 503.233589 335.758291 
L 504.628771 335.885568 
L 506.023952 336.003027 
L 507.419134 336.109873 
L 508.814316 336.205405 
L 510.209497 336.28902 
L 511.604679 336.360222 
L 512.999861 336.418619 
L 514.395042 336.463929 
L 515.790224 336.495982 
L 517.185406 336.514717 
L 518.580587 336.520188 
L 519.975769 336.512559 
L 521.370951 336.492104 
L 522.766132 336.459207 
L 524.161314 336.414356 
L 525.556496 336.358144 
L 526.951677 336.291261 
L 528.346859 336.214491 
L 529.742041 336.128709 
L 531.137222 336.034871 
L 532.532404 335.934012 
L 533.927586 335.827235 
L 535.322767 335.715709 
L 536.717949 335.600655 
L 538.113131 335.483344 
L 539.508312 335.365083 
L 540.903494 335.247212 
L 542.298676 335.131092 
L 543.693857 335.018095 
L 545.089039 334.909598 
L 546.484221 334.806973 
L 547.879402 334.711575 
L 549.274584 334.624737 
L 550.669766 334.54776 
L 552.064947 334.481903 
L 553.460129 334.428374 
L 554.855311 334.388326 
L 556.250492 334.362845 
L 557.645674 334.352943 
L 559.040856 334.359554 
L 560.436037 334.383525 
L 561.831219 334.42561 
L 563.226401 334.486466 
L 564.621582 334.566648 
L 566.016764 334.666603 
L 567.411946 334.786669 
L 568.807127 334.92707 
L 570.202309 335.087918 
L 571.597491 335.269205 
L 572.992672 335.470807 
L 574.387854 335.692484 
L 575.783036 335.93388 
L 577.178217 336.194522 
L 578.573399 336.473827 
L 579.968581 336.7711 
L 581.363762 337.085542 
L 582.758944 337.416251 
L 584.154126 337.762228 
L 585.549307 338.122383 
L 586.944489 338.495541 
L 588.339671 338.880446 
L 589.734852 339.275773 
L 591.130034 339.680131 
L 592.525216 340.092073 
L 593.920397 340.510104 
L 595.315579 340.932689 
L 596.710761 341.358263 
L 598.105942 341.78524 
L 599.501124 342.212019 
L 600.896306 342.636998 
L 602.291487 343.058581 
L 603.686669 343.475184 
L 605.081851 343.885252 
L 606.477032 344.28726 
L 607.872214 344.679726 
L 609.267396 345.061218 
L 610.662577 345.430365 
L 612.057759 345.785859 
L 613.452941 346.12647 
L 614.848122 346.451047 
L 616.243304 346.758526 
L 617.638486 347.047938 
L 619.033667 347.318413 
L 620.428849 347.569184 
L 621.824031 347.799591 
L 623.219212 348.009086 
L 624.614394 348.197237 
L 626.009576 348.363725 
L 627.404757 348.50835 
L 628.799939 348.631031 
L 630.195121 348.731804 
L 631.590302 348.810822 
L 632.985484 348.868355 
L 634.380666 348.904785 
L 635.775847 348.920606 
L 637.171029 348.916418 
L 638.566211 348.892924 
L 639.961392 348.850925 
L 641.356574 348.791315 
L 642.751756 348.715073 
L 644.146937 348.623259 
L 645.542119 348.517004 
L 646.937301 348.397506 
L 648.332482 348.26602 
L 649.727664 348.12385 
L 651.122846 347.972339 
L 652.518027 347.812865 
L 653.913209 347.646827 
L 655.308391 347.475639 
L 656.703572 347.300717 
L 658.098754 347.123477 
L 659.493936 346.945319 
L 660.889117 346.767621 
L 662.284299 346.59173 
L 663.679481 346.418954 
L 665.074662 346.250552 
L 666.469844 346.087726 
L 667.865026 345.931617 
L 669.260207 345.783294 
L 670.655389 345.643746 
L 672.050571 345.513882 
L 673.445752 345.394519 
L 674.840934 345.286379 
L 676.236116 345.190086 
L 677.631297 345.106161 
L 679.026479 345.035017 
L 680.421661 344.97696 
L 681.816842 344.932185 
L 683.212024 344.900775 
L 684.607206 344.882701 
L 686.002387 344.877821 
L 687.397569 344.885886 
L 688.792751 344.906534 
L 690.187932 344.939299 
L 691.583114 344.983611 
L 692.978296 345.0388 
L 694.373477 345.104102 
L 695.768659 345.178663 
L 697.163841 345.261545 
L 698.559022 345.351731 
L 699.954204 345.448133 
L 701.349386 345.5496 
L 702.744567 345.654923 
L 704.139749 345.762846 
L 705.534931 345.872071 
L 706.930112 345.981269 
L 708.325294 346.08909 
L 709.720476 346.194166 
L 711.115657 346.295128 
L 712.510839 346.39061 
L 713.906021 346.479257 
L 715.301202 346.55974 
L 716.696384 346.630758 
L 718.091566 346.691051 
L 719.486747 346.739407 
L 720.881929 346.774672 
L 722.277111 346.795754 
L 723.672292 346.801634 
L 725.067474 346.791372 
L 726.462656 346.764112 
L 727.857837 346.719091 
L 729.253019 346.655642 
L 730.648201 346.5732 
L 732.043382 346.471304 
L 733.438564 346.349606 
L 734.833746 346.207866 
L 736.228927 346.045963 
L 737.624109 345.863888 
L 739.019291 345.661751 
L 740.414472 345.439779 
L 741.809654 345.198315 
L 743.204836 344.937815 
L 744.600017 344.658851 
L 745.995199 344.362102 
L 747.390381 344.048355 
L 748.785562 343.718499 
L 750.180744 343.37352 
L 751.575926 343.014496 
L 752.971107 342.642591 
L 754.366289 342.259051 
L 755.761471 341.865192 
L 757.156652 341.462395 
L 758.551834 341.0521 
L 759.947016 340.635795 
L 761.342197 340.215008 
L 762.737379 339.791302 
L 764.132561 339.366258 
L 765.527742 338.941473 
L 766.922924 338.51855 
L 768.318106 338.099084 
L 769.713287 337.684658 
L 771.108469 337.276832 
L 772.503651 336.877131 
L 773.898832 336.487043 
L 775.294014 336.108003 
L 776.689196 335.74139 
L 778.084377 335.388516 
L 779.479559 335.050622 
L 780.874741 334.728865 
L 782.269922 334.424319 
L 783.665104 334.137961 
L 785.060286 333.870674 
L 786.455467 333.623235 
L 787.850649 333.396314 
L 789.245831 333.19047 
L 790.641012 333.006148 
L 792.036194 332.843678 
L 793.431376 332.703271 
L 794.826557 332.58502 
L 796.221739 332.488901 
L 796.221739 48.181818 
L 100.026087 48.181818 
z
" clip-path="url(#pa3177fae93)" style="fill: #f2deb3"/>
   </g>
   <g id="patch_3">
    <path d="M 100.026087 340.746465 
L 101.421269 340.317053 
L 102.81645 339.889245 
L 104.211632 339.464636 
L 105.606814 339.0448 
L 107.001995 338.631287 
L 108.397177 338.225609 
L 109.792359 337.829232 
L 111.18754 337.443571 
L 112.582722 337.069976 
L 113.977904 336.70973 
L 115.373085 336.36404 
L 116.768267 336.034028 
L 118.163449 335.720727 
L 119.55863 335.425075 
L 120.953812 335.147909 
L 122.348994 334.889961 
L 123.744175 334.651856 
L 125.139357 334.434103 
L 126.534539 334.237101 
L 127.92972 334.06113 
L 129.324902 333.906353 
L 130.720084 333.772816 
L 132.115265 333.660447 
L 133.510447 333.569059 
L 134.905629 333.498349 
L 136.30081 333.447902 
L 137.695992 333.417197 
L 139.091174 333.405604 
L 140.486355 333.412397 
L 141.881537 333.436751 
L 143.276719 333.477755 
L 144.6719 333.534412 
L 146.067082 333.605651 
L 147.462264 333.69033 
L 148.857445 333.787245 
L 150.252627 333.89514 
L 151.647809 334.012714 
L 153.04299 334.138628 
L 154.438172 334.271516 
L 155.833354 334.409992 
L 157.228535 334.552662 
L 158.623717 334.698129 
L 160.018899 334.845008 
L 161.41408 334.991927 
L 162.809262 335.137543 
L 164.204444 335.280548 
L 165.599625 335.419676 
L 166.994807 335.553715 
L 168.389989 335.68151 
L 169.78517 335.801974 
L 171.180352 335.914094 
L 172.575534 336.016938 
L 173.970715 336.10966 
L 175.365897 336.191506 
L 176.761079 336.261817 
L 178.15626 336.320038 
L 179.551442 336.365717 
L 180.946624 336.398508 
L 182.341805 336.418179 
L 183.736987 336.424603 
L 185.132169 336.417771 
L 186.52735 336.397781 
L 187.922532 336.364845 
L 189.317714 336.319284 
L 190.712895 336.261527 
L 192.108077 336.192109 
L 193.503259 336.111664 
L 194.89844 336.020926 
L 196.293622 335.920721 
L 197.688804 335.81196 
L 199.083985 335.69564 
L 200.479167 335.572828 
L 201.874349 335.444663 
L 203.26953 335.312343 
L 204.664712 335.177117 
L 206.059894 335.040283 
L 207.455075 334.903172 
L 208.850257 334.767142 
L 210.245439 334.633574 
L 211.64062 334.503855 
L 213.035802 334.379373 
L 214.430984 334.26151 
L 215.826165 334.151627 
L 217.221347 334.051062 
L 218.616529 333.961116 
L 220.01171 333.883046 
L 221.406892 333.818057 
L 222.802074 333.767294 
L 224.197255 333.731834 
L 225.592437 333.712677 
L 226.987619 333.710744 
L 228.3828 333.726865 
L 229.777982 333.761777 
L 231.173164 333.816117 
L 232.568345 333.890418 
L 233.963527 333.985105 
L 235.358709 334.100493 
L 236.75389 334.236781 
L 238.149072 334.394054 
L 239.544254 334.572278 
L 240.939435 334.771302 
L 242.334617 334.990861 
L 243.729799 335.230568 
L 245.12498 335.489926 
L 246.520162 335.768324 
L 247.915344 336.065042 
L 249.310525 336.379255 
L 250.705707 336.710036 
L 252.100889 337.056364 
L 253.49607 337.417126 
L 254.891252 337.791125 
L 256.286434 338.177089 
L 257.681615 338.573673 
L 259.076797 338.97947 
L 260.471979 339.393021 
L 261.86716 339.812817 
L 263.262342 340.237315 
L 264.657524 340.664942 
L 266.052705 341.094105 
L 267.447887 341.523201 
L 268.843069 341.950627 
L 270.23825 342.374786 
L 271.633432 342.7941 
L 273.028614 343.207017 
L 274.423795 343.61202 
L 275.818977 344.007638 
L 277.214159 344.392449 
L 278.60934 344.765095 
L 280.004522 345.124285 
L 281.399704 345.468804 
L 282.794885 345.79752 
L 284.190067 346.109388 
L 285.585249 346.40346 
L 286.98043 346.678887 
L 288.375612 346.934926 
L 289.770794 347.170939 
L 291.165975 347.386404 
L 292.561157 347.58091 
L 293.956339 347.754165 
L 295.35152 347.905992 
L 296.746702 348.036333 
L 298.141884 348.145248 
L 299.537065 348.232914 
L 300.932247 348.299621 
L 302.327429 348.345772 
L 303.72261 348.371882 
L 305.117792 348.378567 
L 306.512974 348.366548 
L 307.908155 348.33664 
L 309.303337 348.28975 
L 310.698519 348.226867 
L 312.0937 348.149059 
L 313.488882 348.057466 
L 314.884064 347.953287 
L 316.279245 347.837779 
L 317.674427 347.712244 
L 319.069609 347.578022 
L 320.46479 347.436484 
L 321.859972 347.28902 
L 323.255154 347.137029 
L 324.650335 346.981916 
L 326.045517 346.825077 
L 327.440699 346.667892 
L 328.83588 346.511716 
L 330.231062 346.35787 
L 331.626244 346.207634 
L 333.021425 346.062236 
L 334.416607 345.922847 
L 335.811789 345.790572 
L 337.20697 345.666442 
L 338.602152 345.551409 
L 339.997334 345.446339 
L 341.392515 345.352009 
L 342.787697 345.269096 
L 344.182879 345.198181 
L 345.57806 345.139738 
L 346.973242 345.094134 
L 348.368424 345.061629 
L 349.763605 345.042369 
L 351.158787 345.03639 
L 352.553969 345.043616 
L 353.94915 345.06386 
L 355.344332 345.096823 
L 356.739514 345.142099 
L 358.134695 345.199176 
L 359.529877 345.267442 
L 360.925059 345.346184 
L 362.32024 345.434597 
L 363.715422 345.531788 
L 365.110604 345.63678 
L 366.505785 345.748523 
L 367.900967 345.865896 
L 369.296149 345.987715 
L 370.69133 346.112744 
L 372.086512 346.239701 
L 373.481694 346.367265 
L 374.876875 346.494088 
L 376.272057 346.618798 
L 377.667239 346.740017 
L 379.06242 346.856361 
L 380.457602 346.966454 
L 381.852784 347.068937 
L 383.247965 347.162475 
L 384.643147 347.245768 
L 386.038329 347.317558 
L 387.43351 347.376637 
L 388.828692 347.421857 
L 390.223874 347.452137 
L 391.619056 347.46647 
L 393.014237 347.46393 
L 394.409419 347.443677 
L 395.804601 347.404967 
L 397.199782 347.347152 
L 398.594964 347.269688 
L 399.990146 347.17214 
L 401.385327 347.054182 
L 402.780509 346.915602 
L 404.175691 346.756301 
L 405.570872 346.576302 
L 406.966054 346.37574 
L 408.361236 346.15487 
L 409.756417 345.914063 
L 411.151599 345.653803 
L 412.546781 345.37469 
L 413.941962 345.077429 
L 415.337144 344.762833 
L 416.732326 344.431818 
L 418.127507 344.085393 
L 419.522689 343.724659 
L 420.917871 343.350804 
L 422.313052 342.965092 
L 423.708234 342.568857 
L 425.103416 342.163499 
L 426.498597 341.750472 
L 427.893779 341.331277 
L 429.288961 340.907454 
L 430.684142 340.480572 
L 432.079324 340.052221 
L 433.474506 339.624003 
L 434.869687 339.197522 
L 436.264869 338.774373 
L 437.660051 338.356138 
L 439.055232 337.944371 
L 440.450414 337.540593 
L 441.845596 337.146282 
L 443.240777 336.762862 
L 444.635959 336.391702 
L 446.031141 336.034098 
L 447.426322 335.691275 
L 448.821504 335.364375 
L 450.216686 335.054451 
L 451.611867 334.762463 
L 453.007049 334.48927 
L 454.402231 334.235629 
L 455.797412 334.002186 
L 457.192594 333.789479 
L 458.587776 333.597928 
L 459.982957 333.427839 
L 461.378139 333.279401 
L 462.773321 333.152684 
L 464.168502 333.04764 
L 465.563684 332.964104 
L 466.958866 332.901795 
L 468.354047 332.860322 
L 469.749229 332.839181 
L 471.144411 332.837763 
L 472.539592 332.855356 
L 473.934774 332.891152 
L 475.329956 332.944252 
L 476.725137 333.01367 
L 478.120319 333.098344 
L 479.515501 333.197137 
L 480.910682 333.308852 
L 482.305864 333.432231 
L 483.701046 333.565973 
L 485.096227 333.708735 
L 486.491409 333.859143 
L 487.886591 334.015804 
L 489.281772 334.177309 
L 490.676954 334.342248 
L 492.072136 334.509217 
L 493.467317 334.676824 
L 494.862499 334.843703 
L 496.257681 335.00852 
L 497.652862 335.169981 
L 499.048044 335.326843 
L 500.443226 335.477918 
L 501.838407 335.622084 
L 503.233589 335.758291 
L 504.628771 335.885568 
L 506.023952 336.003027 
L 507.419134 336.109873 
L 508.814316 336.205405 
L 510.209497 336.28902 
L 511.604679 336.360222 
L 512.999861 336.418619 
L 514.395042 336.463929 
L 515.790224 336.495982 
L 517.185406 336.514717 
L 518.580587 336.520188 
L 519.975769 336.512559 
L 521.370951 336.492104 
L 522.766132 336.459207 
L 524.161314 336.414356 
L 525.556496 336.358144 
L 526.951677 336.291261 
L 528.346859 336.214491 
L 529.742041 336.128709 
L 531.137222 336.034871 
L 532.532404 335.934012 
L 533.927586 335.827235 
L 535.322767 335.715709 
L 536.717949 335.600655 
L 538.113131 335.483344 
L 539.508312 335.365083 
L 540.903494 335.247212 
L 542.298676 335.131092 
L 543.693857 335.018095 
L 545.089039 334.909598 
L 546.484221 334.806973 
L 547.879402 334.711575 
L 549.274584 334.624737 
L 550.669766 334.54776 
L 552.064947 334.481903 
L 553.460129 334.428374 
L 554.855311 334.388326 
L 556.250492 334.362845 
L 557.645674 334.352943 
L 559.040856 334.359554 
L 560.436037 334.383525 
L 561.831219 334.42561 
L 563.226401 334.486466 
L 564.621582 334.566648 
L 566.016764 334.666603 
L 567.411946 334.786669 
L 568.807127 334.92707 
L 570.202309 335.087918 
L 571.597491 335.269205 
L 572.992672 335.470807 
L 574.387854 335.692484 
L 575.783036 335.93388 
L 577.178217 336.194522 
L 578.573399 336.473827 
L 579.968581 336.7711 
L 581.363762 337.085542 
L 582.758944 337.416251 
L 584.154126 337.762228 
L 585.549307 338.122383 
L 586.944489 338.495541 
L 588.339671 338.880446 
L 589.734852 339.275773 
L 591.130034 339.680131 
L 592.525216 340.092073 
L 593.920397 340.510104 
L 595.315579 340.932689 
L 596.710761 341.358263 
L 598.105942 341.78524 
L 599.501124 342.212019 
L 600.896306 342.636998 
L 602.291487 343.058581 
L 603.686669 343.475184 
L 605.081851 343.885252 
L 606.477032 344.28726 
L 607.872214 344.679726 
L 609.267396 345.061218 
L 610.662577 345.430365 
L 612.057759 345.785859 
L 613.452941 346.12647 
L 614.848122 346.451047 
L 616.243304 346.758526 
L 617.638486 347.047938 
L 619.033667 347.318413 
L 620.428849 347.569184 
L 621.824031 347.799591 
L 623.219212 348.009086 
L 624.614394 348.197237 
L 626.009576 348.363725 
L 627.404757 348.50835 
L 628.799939 348.631031 
L 630.195121 348.731804 
L 631.590302 348.810822 
L 632.985484 348.868355 
L 634.380666 348.904785 
L 635.775847 348.920606 
L 637.171029 348.916418 
L 638.566211 348.892924 
L 639.961392 348.850925 
L 641.356574 348.791315 
L 642.751756 348.715073 
L 644.146937 348.623259 
L 645.542119 348.517004 
L 646.937301 348.397506 
L 648.332482 348.26602 
L 649.727664 348.12385 
L 651.122846 347.972339 
L 652.518027 347.812865 
L 653.913209 347.646827 
L 655.308391 347.475639 
L 656.703572 347.300717 
L 658.098754 347.123477 
L 659.493936 346.945319 
L 660.889117 346.767621 
L 662.284299 346.59173 
L 663.679481 346.418954 
L 665.074662 346.250552 
L 666.469844 346.087726 
L 667.865026 345.931617 
L 669.260207 345.783294 
L 670.655389 345.643746 
L 672.050571 345.513882 
L 673.445752 345.394519 
L 674.840934 345.286379 
L 676.236116 345.190086 
L 677.631297 345.106161 
L 679.026479 345.035017 
L 680.421661 344.97696 
L 681.816842 344.932185 
L 683.212024 344.900775 
L 684.607206 344.882701 
L 686.002387 344.877821 
L 687.397569 344.885886 
L 688.792751 344.906534 
L 690.187932 344.939299 
L 691.583114 344.983611 
L 692.978296 345.0388 
L 694.373477 345.104102 
L 695.768659 345.178663 
L 697.163841 345.261545 
L 698.559022 345.351731 
L 699.954204 345.448133 
L 701.349386 345.5496 
L 702.744567 345.654923 
L 704.139749 345.762846 
L 705.534931 345.872071 
L 706.930112 345.981269 
L 708.325294 346.08909 
L 709.720476 346.194166 
L 711.115657 346.295128 
L 712.510839 346.39061 
L 713.906021 346.479257 
L 715.301202 346.55974 
L 716.696384 346.630758 
L 718.091566 346.691051 
L 719.486747 346.739407 
L 720.881929 346.774672 
L 722.277111 346.795754 
L 723.672292 346.801634 
L 725.067474 346.791372 
L 726.462656 346.764112 
L 727.857837 346.719091 
L 729.253019 346.655642 
L 730.648201 346.5732 
L 732.043382 346.471304 
L 733.438564 346.349606 
L 734.833746 346.207866 
L 736.228927 346.045963 
L 737.624109 345.863888 
L 739.019291 345.661751 
L 740.414472 345.439779 
L 741.809654 345.198315 
L 743.204836 344.937815 
L 744.600017 344.658851 
L 745.995199 344.362102 
L 747.390381 344.048355 
L 748.785562 343.718499 
L 750.180744 343.37352 
L 751.575926 343.014496 
L 752.971107 342.642591 
L 754.366289 342.259051 
L 755.761471 341.865192 
L 757.156652 341.462395 
L 758.551834 341.0521 
L 759.947016 340.635795 
L 761.342197 340.215008 
L 762.737379 339.791302 
L 764.132561 339.366258 
L 765.527742 338.941473 
L 766.922924 338.51855 
L 768.318106 338.099084 
L 769.713287 337.684658 
L 771.108469 337.276832 
L 772.503651 336.877131 
L 773.898832 336.487043 
L 775.294014 336.108003 
L 776.689196 335.74139 
L 778.084377 335.388516 
L 779.479559 335.050622 
L 780.874741 334.728865 
L 782.269922 334.424319 
L 783.665104 334.137961 
L 785.060286 333.870674 
L 786.455467 333.623235 
L 787.850649 333.396314 
L 789.245831 333.19047 
L 790.641012 333.006148 
L 792.036194 332.843678 
L 793.431376 332.703271 
L 794.826557 332.58502 
L 796.221739 332.488901 
L 796.221739 432.955556 
L 100.026087 432.955556 
z
" clip-path="url(#pa3177fae93)" style="fill: #a9d9e8"/>
   </g>
   <g id="line2d_1">
    <path d="M 100.026087 340.746465 
L 109.792359 337.829232 
L 115.373085 336.36404 
L 120.953812 335.147909 
L 125.139357 334.434103 
L 129.324902 333.906353 
L 133.510447 333.569059 
L 137.695992 333.417197 
L 143.276719 333.477755 
L 148.857445 333.787245 
L 155.833354 334.409992 
L 172.575534 336.016938 
L 178.15626 336.320038 
L 183.736987 336.424603 
L 189.317714 336.319284 
L 196.293622 335.920721 
L 204.664712 335.177117 
L 217.221347 334.051062 
L 222.802074 333.767294 
L 228.3828 333.726865 
L 232.568345 333.890418 
L 236.75389 334.236781 
L 240.939435 334.771302 
L 245.12498 335.489926 
L 250.705707 336.710036 
L 256.286434 338.177089 
L 264.657524 340.664942 
L 275.818977 344.007638 
L 281.399704 345.468804 
L 286.98043 346.678887 
L 291.165975 347.386404 
L 295.35152 347.905992 
L 299.537065 348.232914 
L 303.72261 348.371882 
L 309.303337 348.28975 
L 314.884064 347.953287 
L 321.859972 347.28902 
L 338.602152 345.551409 
L 344.182879 345.198181 
L 349.763605 345.042369 
L 355.344332 345.096823 
L 360.925059 345.346184 
L 369.296149 345.987715 
L 383.247965 347.162475 
L 388.828692 347.421857 
L 394.409419 347.443677 
L 398.594964 347.269688 
L 402.780509 346.915602 
L 406.966054 346.37574 
L 411.151599 345.653803 
L 416.732326 344.431818 
L 422.313052 342.965092 
L 430.684142 340.480572 
L 441.845596 337.146282 
L 447.426322 335.691275 
L 453.007049 334.48927 
L 457.192594 333.789479 
L 461.378139 333.279401 
L 465.563684 332.964104 
L 469.749229 332.839181 
L 475.329956 332.944252 
L 480.910682 333.308852 
L 487.886591 334.015804 
L 504.628771 335.885568 
L 510.209497 336.28902 
L 515.790224 336.495982 
L 521.370951 336.492104 
L 526.951677 336.291261 
L 533.927586 335.827235 
L 552.064947 334.481903 
L 557.645674 334.352943 
L 563.226401 334.486466 
L 567.411946 334.786669 
L 571.597491 335.269205 
L 575.783036 335.93388 
L 581.363762 337.085542 
L 586.944489 338.495541 
L 593.920397 340.510104 
L 609.267396 345.061218 
L 614.848122 346.451047 
L 620.428849 347.569184 
L 624.614394 348.197237 
L 628.799939 348.631031 
L 632.985484 348.868355 
L 637.171029 348.916418 
L 642.751756 348.715073 
L 648.332482 348.26602 
L 655.308391 347.475639 
L 670.655389 345.643746 
L 676.236116 345.190086 
L 681.816842 344.932185 
L 687.397569 344.885886 
L 692.978296 345.0388 
L 699.954204 345.448133 
L 718.091566 346.691051 
L 723.672292 346.801634 
L 729.253019 346.655642 
L 733.438564 346.349606 
L 737.624109 345.863888 
L 741.809654 345.198315 
L 747.390381 344.048355 
L 752.971107 342.642591 
L 759.947016 340.635795 
L 775.294014 336.108003 
L 780.874741 334.728865 
L 786.455467 333.623235 
L 790.641012 333.006148 
L 794.826557 332.58502 
L 796.221739 332.488901 
L 796.221739 332.488901 
" clip-path="url(#pa3177fae93)" style="fill: none; stroke: #ffffff; stroke-width: 6; stroke-linecap: round"/>
   </g>
   <g id="line2d_2">
    <path d="M 100.026087 340.746465 
L 109.792359 337.829232 
L 115.373085 336.36404 
L 120.953812 335.147909 
L 125.139357 334.434103 
L 129.324902 333.906353 
L 133.510447 333.569059 
L 137.695992 333.417197 
L 143.276719 333.477755 
L 148.857445 333.787245 
L 155.833354 334.409992 
L 172.575534 336.016938 
L 178.15626 336.320038 
L 183.736987 336.424603 
L 189.317714 336.319284 
L 196.293622 335.920721 
L 204.664712 335.177117 
L 217.221347 334.051062 
L 222.802074 333.767294 
L 228.3828 333.726865 
L 232.568345 333.890418 
L 236.75389 334.236781 
L 240.939435 334.771302 
L 245.12498 335.489926 
L 250.705707 336.710036 
L 256.286434 338.177089 
L 264.657524 340.664942 
L 275.818977 344.007638 
L 281.399704 345.468804 
L 286.98043 346.678887 
L 291.165975 347.386404 
L 295.35152 347.905992 
L 299.537065 348.232914 
L 303.72261 348.371882 
L 309.303337 348.28975 
L 314.884064 347.953287 
L 321.859972 347.28902 
L 338.602152 345.551409 
L 344.182879 345.198181 
L 349.763605 345.042369 
L 355.344332 345.096823 
L 360.925059 345.346184 
L 369.296149 345.987715 
L 383.247965 347.162475 
L 388.828692 347.421857 
L 394.409419 347.443677 
L 398.594964 347.269688 
L 402.780509 346.915602 
L 406.966054 346.37574 
L 411.151599 345.653803 
L 416.732326 344.431818 
L 422.313052 342.965092 
L 430.684142 340.480572 
L 441.845596 337.146282 
L 447.426322 335.691275 
L 453.007049 334.48927 
L 457.192594 333.789479 
L 461.378139 333.279401 
L 465.563684 332.964104 
L 469.749229 332.839181 
L 475.329956 332.944252 
L 480.910682 333.308852 
L 487.886591 334.015804 
L 504.628771 335.885568 
L 510.209497 336.28902 
L 515.790224 336.495982 
L 521.370951 336.492104 
L 526.951677 336.291261 
L 533.927586 335.827235 
L 552.064947 334.481903 
L 557.645674 334.352943 
L 563.226401 334.486466 
L 567.411946 334.786669 
L 571.597491 335.269205 
L 575.783036 335.93388 
L 581.363762 337.085542 
L 586.944489 338.495541 
L 593.920397 340.510104 
L 609.267396 345.061218 
L 614.848122 346.451047 
L 620.428849 347.569184 
L 624.614394 348.197237 
L 628.799939 348.631031 
L 632.985484 348.868355 
L 637.171029 348.916418 
L 642.751756 348.715073 
L 648.332482 348.26602 
L 655.308391 347.475639 
L 670.655389 345.643746 
L 676.236116 345.190086 
L 681.816842 344.932185 
L 687.397569 344.885886 
L 692.978296 345.0388 
L 699.954204 345.448133 
L 718.091566 346.691051 
L 723.672292 346.801634 
L 729.253019 346.655642 
L 733.438564 346.349606 
L 737.624109 345.863888 
L 741.809654 345.198315 
L 747.390381 344.048355 
L 752.971107 342.642591 
L 759.947016 340.635795 
L 775.294014 336.108003 
L 780.874741 334.728865 
L 786.455467 333.623235 
L 790.641012 333.006148 
L 794.826557 332.58502 
L 796.221739 332.488901 
L 796.221739 332.488901 
" clip-path="url(#pa3177fae93)" style="fill: none; stroke: #4e8798; stroke-width: 1.2; stroke-linecap: square"/>
   </g>
   <g id="text_1">
    <!-- SEA -->
    <g style="fill: #24566a" transform="translate(758.348764 423.290755) scale(0.11 -0.11)">
     <defs>
      <path id="DejaVuSans-Bold-36" d="M 3834 4519 
L 3834 3531 
Q 3450 3703 3084 3790 
Q 2719 3878 2394 3878 
Q 1963 3878 1756 3759 
Q 1550 3641 1550 3391 
Q 1550 3203 1689 3098 
Q 1828 2994 2194 2919 
L 2706 2816 
Q 3484 2659 3812 2340 
Q 4141 2022 4141 1434 
Q 4141 663 3683 286 
Q 3225 -91 2284 -91 
Q 1841 -91 1394 -6 
Q 947 78 500 244 
L 500 1259 
Q 947 1022 1364 901 
Q 1781 781 2169 781 
Q 2563 781 2772 912 
Q 2981 1044 2981 1288 
Q 2981 1506 2839 1625 
Q 2697 1744 2272 1838 
L 1806 1941 
Q 1106 2091 782 2419 
Q 459 2747 459 3303 
Q 459 4000 909 4375 
Q 1359 4750 2203 4750 
Q 2588 4750 2994 4692 
Q 3400 4634 3834 4519 
z
" transform="scale(0.015625)"/>
      <path id="DejaVuSans-Bold-28" d="M 588 4666 
L 3834 4666 
L 3834 3756 
L 1791 3756 
L 1791 2888 
L 3713 2888 
L 3713 1978 
L 1791 1978 
L 1791 909 
L 3903 909 
L 3903 0 
L 588 0 
L 588 4666 
z
" transform="scale(0.015625)"/>
      <path id="DejaVuSans-Bold-24" d="M 3419 850 
L 1538 850 
L 1241 0 
L 31 0 
L 1759 4666 
L 3194 4666 
L 4922 0 
L 3713 0 
L 3419 850 
z
M 1838 1716 
L 3116 1716 
L 2478 3572 
L 1838 1716 
z
" transform="scale(0.015625)"/>
     </defs>
     <use xlink:href="#DejaVuSans-Bold-36"/>
     <use xlink:href="#DejaVuSans-Bold-28" transform="translate(72.015625 0)"/>
     <use xlink:href="#DejaVuSans-Bold-24" transform="translate(140.328125 0)"/>
    </g>
   </g>
   <g id="text_2">
    <!-- BACKSHORE -->
    <g style="fill: #6c542d" transform="translate(706.341107 70.391765) scale(0.11 -0.11)">
     <defs>
      <path id="DejaVuSans-Bold-25" d="M 2456 2859 
Q 2741 2859 2887 2984 
Q 3034 3109 3034 3353 
Q 3034 3594 2887 3720 
Q 2741 3847 2456 3847 
L 1791 3847 
L 1791 2859 
L 2456 2859 
z
M 2497 819 
Q 2859 819 3042 972 
Q 3225 1125 3225 1434 
Q 3225 1738 3044 1889 
Q 2863 2041 2497 2041 
L 1791 2041 
L 1791 819 
L 2497 819 
z
M 3616 2497 
Q 4003 2384 4215 2081 
Q 4428 1778 4428 1338 
Q 4428 663 3972 331 
Q 3516 0 2584 0 
L 588 0 
L 588 4666 
L 2394 4666 
Q 3366 4666 3802 4372 
Q 4238 4078 4238 3431 
Q 4238 3091 4078 2852 
Q 3919 2613 3616 2497 
z
" transform="scale(0.015625)"/>
      <path id="DejaVuSans-Bold-26" d="M 4288 256 
Q 3956 84 3597 -3 
Q 3238 -91 2847 -91 
Q 1681 -91 1000 561 
Q 319 1213 319 2328 
Q 319 3447 1000 4098 
Q 1681 4750 2847 4750 
Q 3238 4750 3597 4662 
Q 3956 4575 4288 4403 
L 4288 3438 
Q 3953 3666 3628 3772 
Q 3303 3878 2944 3878 
Q 2300 3878 1931 3465 
Q 1563 3053 1563 2328 
Q 1563 1606 1931 1193 
Q 2300 781 2944 781 
Q 3303 781 3628 887 
Q 3953 994 4288 1222 
L 4288 256 
z
" transform="scale(0.015625)"/>
      <path id="DejaVuSans-Bold-2e" d="M 588 4666 
L 1791 4666 
L 1791 2963 
L 3525 4666 
L 4922 4666 
L 2675 2456 
L 5153 0 
L 3647 0 
L 1791 1838 
L 1791 0 
L 588 0 
L 588 4666 
z
" transform="scale(0.015625)"/>
      <path id="DejaVuSans-Bold-2b" d="M 588 4666 
L 1791 4666 
L 1791 2888 
L 3566 2888 
L 3566 4666 
L 4769 4666 
L 4769 0 
L 3566 0 
L 3566 1978 
L 1791 1978 
L 1791 0 
L 588 0 
L 588 4666 
z
" transform="scale(0.015625)"/>
      <path id="DejaVuSans-Bold-32" d="M 2719 3878 
Q 2169 3878 1866 3472 
Q 1563 3066 1563 2328 
Q 1563 1594 1866 1187 
Q 2169 781 2719 781 
Q 3272 781 3575 1187 
Q 3878 1594 3878 2328 
Q 3878 3066 3575 3472 
Q 3272 3878 2719 3878 
z
M 2719 4750 
Q 3844 4750 4481 4106 
Q 5119 3463 5119 2328 
Q 5119 1197 4481 553 
Q 3844 -91 2719 -91 
Q 1597 -91 958 553 
Q 319 1197 319 2328 
Q 319 3463 958 4106 
Q 1597 4750 2719 4750 
z
" transform="scale(0.015625)"/>
      <path id="DejaVuSans-Bold-35" d="M 2297 2597 
Q 2675 2597 2839 2737 
Q 3003 2878 3003 3200 
Q 3003 3519 2839 3656 
Q 2675 3794 2297 3794 
L 1791 3794 
L 1791 2597 
L 2297 2597 
z
M 1791 1766 
L 1791 0 
L 588 0 
L 588 4666 
L 2425 4666 
Q 3347 4666 3776 4356 
Q 4206 4047 4206 3378 
Q 4206 2916 3982 2619 
Q 3759 2322 3309 2181 
Q 3556 2125 3751 1926 
Q 3947 1728 4147 1325 
L 4800 0 
L 3519 0 
L 2950 1159 
Q 2778 1509 2601 1637 
Q 2425 1766 2131 1766 
L 1791 1766 
z
" transform="scale(0.015625)"/>
     </defs>
     <use xlink:href="#DejaVuSans-Bold-25"/>
     <use xlink:href="#DejaVuSans-Bold-24" transform="translate(76.21875 0)"/>
     <use xlink:href="#DejaVuSans-Bold-26" transform="translate(153.609375 0)"/>
     <use xlink:href="#DejaVuSans-Bold-2e" transform="translate(227 0)"/>
     <use xlink:href="#DejaVuSans-Bold-36" transform="translate(304.484375 0)"/>
     <use xlink:href="#DejaVuSans-Bold-2b" transform="translate(376.5 0)"/>
     <use xlink:href="#DejaVuSans-Bold-32" transform="translate(460.1875 0)"/>
     <use xlink:href="#DejaVuSans-Bold-35" transform="translate(545.203125 0)"/>
     <use xlink:href="#DejaVuSans-Bold-28" transform="translate(622.203125 0)"/>
    </g>
   </g>
   <g id="text_3">
    <!-- Landward limit of the sampling area -->
    <g style="fill: #4d3e25" transform="translate(353.161257 94.609862) scale(0.105 -0.105)">
     <defs>
      <path id="DejaVuSans-2f" d="M 628 4666 
L 1259 4666 
L 1259 531 
L 3531 531 
L 3531 0 
L 628 0 
L 628 4666 
z
" transform="scale(0.015625)"/>
      <path id="DejaVuSans-44" d="M 2194 1759 
Q 1497 1759 1228 1600 
Q 959 1441 959 1056 
Q 959 750 1161 570 
Q 1363 391 1709 391 
Q 2188 391 2477 730 
Q 2766 1069 2766 1631 
L 2766 1759 
L 2194 1759 
z
M 3341 1997 
L 3341 0 
L 2766 0 
L 2766 531 
Q 2569 213 2275 61 
Q 1981 -91 1556 -91 
Q 1019 -91 701 211 
Q 384 513 384 1019 
Q 384 1609 779 1909 
Q 1175 2209 1959 2209 
L 2766 2209 
L 2766 2266 
Q 2766 2663 2505 2880 
Q 2244 3097 1772 3097 
Q 1472 3097 1187 3025 
Q 903 2953 641 2809 
L 641 3341 
Q 956 3463 1253 3523 
Q 1550 3584 1831 3584 
Q 2591 3584 2966 3190 
Q 3341 2797 3341 1997 
z
" transform="scale(0.015625)"/>
      <path id="DejaVuSans-51" d="M 3513 2113 
L 3513 0 
L 2938 0 
L 2938 2094 
Q 2938 2591 2744 2837 
Q 2550 3084 2163 3084 
Q 1697 3084 1428 2787 
Q 1159 2491 1159 1978 
L 1159 0 
L 581 0 
L 581 3500 
L 1159 3500 
L 1159 2956 
Q 1366 3272 1645 3428 
Q 1925 3584 2291 3584 
Q 2894 3584 3203 3211 
Q 3513 2838 3513 2113 
z
" transform="scale(0.015625)"/>
      <path id="DejaVuSans-47" d="M 2906 2969 
L 2906 4863 
L 3481 4863 
L 3481 0 
L 2906 0 
L 2906 525 
Q 2725 213 2448 61 
Q 2172 -91 1784 -91 
Q 1150 -91 751 415 
Q 353 922 353 1747 
Q 353 2572 751 3078 
Q 1150 3584 1784 3584 
Q 2172 3584 2448 3432 
Q 2725 3281 2906 2969 
z
M 947 1747 
Q 947 1113 1208 752 
Q 1469 391 1925 391 
Q 2381 391 2643 752 
Q 2906 1113 2906 1747 
Q 2906 2381 2643 2742 
Q 2381 3103 1925 3103 
Q 1469 3103 1208 2742 
Q 947 2381 947 1747 
z
" transform="scale(0.015625)"/>
      <path id="DejaVuSans-5a" d="M 269 3500 
L 844 3500 
L 1563 769 
L 2278 3500 
L 2956 3500 
L 3675 769 
L 4391 3500 
L 4966 3500 
L 4050 0 
L 3372 0 
L 2619 2869 
L 1863 0 
L 1184 0 
L 269 3500 
z
" transform="scale(0.015625)"/>
      <path id="DejaVuSans-55" d="M 2631 2963 
Q 2534 3019 2420 3045 
Q 2306 3072 2169 3072 
Q 1681 3072 1420 2755 
Q 1159 2438 1159 1844 
L 1159 0 
L 581 0 
L 581 3500 
L 1159 3500 
L 1159 2956 
Q 1341 3275 1631 3429 
Q 1922 3584 2338 3584 
Q 2397 3584 2469 3576 
Q 2541 3569 2628 3553 
L 2631 2963 
z
" transform="scale(0.015625)"/>
      <path id="DejaVuSans-3" transform="scale(0.015625)"/>
      <path id="DejaVuSans-4f" d="M 603 4863 
L 1178 4863 
L 1178 0 
L 603 0 
L 603 4863 
z
" transform="scale(0.015625)"/>
      <path id="DejaVuSans-4c" d="M 603 3500 
L 1178 3500 
L 1178 0 
L 603 0 
L 603 3500 
z
M 603 4863 
L 1178 4863 
L 1178 4134 
L 603 4134 
L 603 4863 
z
" transform="scale(0.015625)"/>
      <path id="DejaVuSans-50" d="M 3328 2828 
Q 3544 3216 3844 3400 
Q 4144 3584 4550 3584 
Q 5097 3584 5394 3201 
Q 5691 2819 5691 2113 
L 5691 0 
L 5113 0 
L 5113 2094 
Q 5113 2597 4934 2840 
Q 4756 3084 4391 3084 
Q 3944 3084 3684 2787 
Q 3425 2491 3425 1978 
L 3425 0 
L 2847 0 
L 2847 2094 
Q 2847 2600 2669 2842 
Q 2491 3084 2119 3084 
Q 1678 3084 1418 2786 
Q 1159 2488 1159 1978 
L 1159 0 
L 581 0 
L 581 3500 
L 1159 3500 
L 1159 2956 
Q 1356 3278 1631 3431 
Q 1906 3584 2284 3584 
Q 2666 3584 2933 3390 
Q 3200 3197 3328 2828 
z
" transform="scale(0.015625)"/>
      <path id="DejaVuSans-57" d="M 1172 4494 
L 1172 3500 
L 2356 3500 
L 2356 3053 
L 1172 3053 
L 1172 1153 
Q 1172 725 1289 603 
Q 1406 481 1766 481 
L 2356 481 
L 2356 0 
L 1766 0 
Q 1100 0 847 248 
Q 594 497 594 1153 
L 594 3053 
L 172 3053 
L 172 3500 
L 594 3500 
L 594 4494 
L 1172 4494 
z
" transform="scale(0.015625)"/>
      <path id="DejaVuSans-52" d="M 1959 3097 
Q 1497 3097 1228 2736 
Q 959 2375 959 1747 
Q 959 1119 1226 758 
Q 1494 397 1959 397 
Q 2419 397 2687 759 
Q 2956 1122 2956 1747 
Q 2956 2369 2687 2733 
Q 2419 3097 1959 3097 
z
M 1959 3584 
Q 2709 3584 3137 3096 
Q 3566 2609 3566 1747 
Q 3566 888 3137 398 
Q 2709 -91 1959 -91 
Q 1206 -91 779 398 
Q 353 888 353 1747 
Q 353 2609 779 3096 
Q 1206 3584 1959 3584 
z
" transform="scale(0.015625)"/>
      <path id="DejaVuSans-49" d="M 2375 4863 
L 2375 4384 
L 1825 4384 
Q 1516 4384 1395 4259 
Q 1275 4134 1275 3809 
L 1275 3500 
L 2222 3500 
L 2222 3053 
L 1275 3053 
L 1275 0 
L 697 0 
L 697 3053 
L 147 3053 
L 147 3500 
L 697 3500 
L 697 3744 
Q 697 4328 969 4595 
Q 1241 4863 1831 4863 
L 2375 4863 
z
" transform="scale(0.015625)"/>
      <path id="DejaVuSans-4b" d="M 3513 2113 
L 3513 0 
L 2938 0 
L 2938 2094 
Q 2938 2591 2744 2837 
Q 2550 3084 2163 3084 
Q 1697 3084 1428 2787 
Q 1159 2491 1159 1978 
L 1159 0 
L 581 0 
L 581 4863 
L 1159 4863 
L 1159 2956 
Q 1366 3272 1645 3428 
Q 1925 3584 2291 3584 
Q 2894 3584 3203 3211 
Q 3513 2838 3513 2113 
z
" transform="scale(0.015625)"/>
      <path id="DejaVuSans-48" d="M 3597 1894 
L 3597 1613 
L 953 1613 
Q 991 1019 1311 708 
Q 1631 397 2203 397 
Q 2534 397 2845 478 
Q 3156 559 3463 722 
L 3463 178 
Q 3153 47 2828 -22 
Q 2503 -91 2169 -91 
Q 1331 -91 842 396 
Q 353 884 353 1716 
Q 353 2575 817 3079 
Q 1281 3584 2069 3584 
Q 2775 3584 3186 3129 
Q 3597 2675 3597 1894 
z
M 3022 2063 
Q 3016 2534 2758 2815 
Q 2500 3097 2075 3097 
Q 1594 3097 1305 2825 
Q 1016 2553 972 2059 
L 3022 2063 
z
" transform="scale(0.015625)"/>
      <path id="DejaVuSans-56" d="M 2834 3397 
L 2834 2853 
Q 2591 2978 2328 3040 
Q 2066 3103 1784 3103 
Q 1356 3103 1142 2972 
Q 928 2841 928 2578 
Q 928 2378 1081 2264 
Q 1234 2150 1697 2047 
L 1894 2003 
Q 2506 1872 2764 1633 
Q 3022 1394 3022 966 
Q 3022 478 2636 193 
Q 2250 -91 1575 -91 
Q 1294 -91 989 -36 
Q 684 19 347 128 
L 347 722 
Q 666 556 975 473 
Q 1284 391 1588 391 
Q 1994 391 2212 530 
Q 2431 669 2431 922 
Q 2431 1156 2273 1281 
Q 2116 1406 1581 1522 
L 1381 1569 
Q 847 1681 609 1914 
Q 372 2147 372 2553 
Q 372 3047 722 3315 
Q 1072 3584 1716 3584 
Q 2034 3584 2315 3537 
Q 2597 3491 2834 3397 
z
" transform="scale(0.015625)"/>
      <path id="DejaVuSans-53" d="M 1159 525 
L 1159 -1331 
L 581 -1331 
L 581 3500 
L 1159 3500 
L 1159 2969 
Q 1341 3281 1617 3432 
Q 1894 3584 2278 3584 
Q 2916 3584 3314 3078 
Q 3713 2572 3713 1747 
Q 3713 922 3314 415 
Q 2916 -91 2278 -91 
Q 1894 -91 1617 61 
Q 1341 213 1159 525 
z
M 3116 1747 
Q 3116 2381 2855 2742 
Q 2594 3103 2138 3103 
Q 1681 3103 1420 2742 
Q 1159 2381 1159 1747 
Q 1159 1113 1420 752 
Q 1681 391 2138 391 
Q 2594 391 2855 752 
Q 3116 1113 3116 1747 
z
" transform="scale(0.015625)"/>
      <path id="DejaVuSans-4a" d="M 2906 1791 
Q 2906 2416 2648 2759 
Q 2391 3103 1925 3103 
Q 1463 3103 1205 2759 
Q 947 2416 947 1791 
Q 947 1169 1205 825 
Q 1463 481 1925 481 
Q 2391 481 2648 825 
Q 2906 1169 2906 1791 
z
M 3481 434 
Q 3481 -459 3084 -895 
Q 2688 -1331 1869 -1331 
Q 1566 -1331 1297 -1286 
Q 1028 -1241 775 -1147 
L 775 -588 
Q 1028 -725 1275 -790 
Q 1522 -856 1778 -856 
Q 2344 -856 2625 -561 
Q 2906 -266 2906 331 
L 2906 616 
Q 2728 306 2450 153 
Q 2172 0 1784 0 
Q 1141 0 747 490 
Q 353 981 353 1791 
Q 353 2603 747 3093 
Q 1141 3584 1784 3584 
Q 2172 3584 2450 3431 
Q 2728 3278 2906 2969 
L 2906 3500 
L 3481 3500 
L 3481 434 
z
" transform="scale(0.015625)"/>
     </defs>
     <use xlink:href="#DejaVuSans-2f"/>
     <use xlink:href="#DejaVuSans-44" transform="translate(55.71875 0)"/>
     <use xlink:href="#DejaVuSans-51" transform="translate(117 0)"/>
     <use xlink:href="#DejaVuSans-47" transform="translate(180.375 0)"/>
     <use xlink:href="#DejaVuSans-5a" transform="translate(243.859375 0)"/>
     <use xlink:href="#DejaVuSans-44" transform="translate(325.640625 0)"/>
     <use xlink:href="#DejaVuSans-55" transform="translate(386.921875 0)"/>
     <use xlink:href="#DejaVuSans-47" transform="translate(426.28125 0)"/>
     <use xlink:href="#DejaVuSans-3" transform="translate(489.765625 0)"/>
     <use xlink:href="#DejaVuSans-4f" transform="translate(521.546875 0)"/>
     <use xlink:href="#DejaVuSans-4c" transform="translate(549.328125 0)"/>
     <use xlink:href="#DejaVuSans-50" transform="translate(577.109375 0)"/>
     <use xlink:href="#DejaVuSans-4c" transform="translate(674.515625 0)"/>
     <use xlink:href="#DejaVuSans-57" transform="translate(702.296875 0)"/>
     <use xlink:href="#DejaVuSans-3" transform="translate(741.5 0)"/>
     <use xlink:href="#DejaVuSans-52" transform="translate(773.28125 0)"/>
     <use xlink:href="#DejaVuSans-49" transform="translate(834.46875 0)"/>
     <use xlink:href="#DejaVuSans-3" transform="translate(869.671875 0)"/>
     <use xlink:href="#DejaVuSans-57" transform="translate(901.453125 0)"/>
     <use xlink:href="#DejaVuSans-4b" transform="translate(940.65625 0)"/>
     <use xlink:href="#DejaVuSans-48" transform="translate(1004.03125 0)"/>
     <use xlink:href="#DejaVuSans-3" transform="translate(1065.5625 0)"/>
     <use xlink:href="#DejaVuSans-56" transform="translate(1097.34375 0)"/>
     <use xlink:href="#DejaVuSans-44" transform="translate(1149.4375 0)"/>
     <use xlink:href="#DejaVuSans-50" transform="translate(1210.71875 0)"/>
     <use xlink:href="#DejaVuSans-53" transform="translate(1308.125 0)"/>
     <use xlink:href="#DejaVuSans-4f" transform="translate(1371.609375 0)"/>
     <use xlink:href="#DejaVuSans-4c" transform="translate(1399.390625 0)"/>
     <use xlink:href="#DejaVuSans-51" transform="translate(1427.171875 0)"/>
     <use xlink:href="#DejaVuSans-4a" transform="translate(1490.546875 0)"/>
     <use xlink:href="#DejaVuSans-3" transform="translate(1554.03125 0)"/>
     <use xlink:href="#DejaVuSans-44" transform="translate(1585.8125 0)"/>
     <use xlink:href="#DejaVuSans-55" transform="translate(1647.09375 0)"/>
     <use xlink:href="#DejaVuSans-48" transform="translate(1686 0)"/>
     <use xlink:href="#DejaVuSans-44" transform="translate(1747.53125 0)"/>
    </g>
   </g>
   <g id="text_4">
    <!-- Cross-shore distance -->
    <g style="fill: #263238" transform="translate(51.904014 270.749013) rotate(-90) scale(0.095 -0.095)">
     <defs>
      <path id="DejaVuSans-26" d="M 4122 4306 
L 4122 3641 
Q 3803 3938 3442 4084 
Q 3081 4231 2675 4231 
Q 1875 4231 1450 3742 
Q 1025 3253 1025 2328 
Q 1025 1406 1450 917 
Q 1875 428 2675 428 
Q 3081 428 3442 575 
Q 3803 722 4122 1019 
L 4122 359 
Q 3791 134 3420 21 
Q 3050 -91 2638 -91 
Q 1578 -91 968 557 
Q 359 1206 359 2328 
Q 359 3453 968 4101 
Q 1578 4750 2638 4750 
Q 3056 4750 3426 4639 
Q 3797 4528 4122 4306 
z
" transform="scale(0.015625)"/>
      <path id="DejaVuSans-10" d="M 313 2009 
L 1997 2009 
L 1997 1497 
L 313 1497 
L 313 2009 
z
" transform="scale(0.015625)"/>
      <path id="DejaVuSans-46" d="M 3122 3366 
L 3122 2828 
Q 2878 2963 2633 3030 
Q 2388 3097 2138 3097 
Q 1578 3097 1268 2742 
Q 959 2388 959 1747 
Q 959 1106 1268 751 
Q 1578 397 2138 397 
Q 2388 397 2633 464 
Q 2878 531 3122 666 
L 3122 134 
Q 2881 22 2623 -34 
Q 2366 -91 2075 -91 
Q 1284 -91 818 406 
Q 353 903 353 1747 
Q 353 2603 823 3093 
Q 1294 3584 2113 3584 
Q 2378 3584 2631 3529 
Q 2884 3475 3122 3366 
z
" transform="scale(0.015625)"/>
     </defs>
     <use xlink:href="#DejaVuSans-26"/>
     <use xlink:href="#DejaVuSans-55" transform="translate(69.828125 0)"/>
     <use xlink:href="#DejaVuSans-52" transform="translate(108.734375 0)"/>
     <use xlink:href="#DejaVuSans-56" transform="translate(169.921875 0)"/>
     <use xlink:href="#DejaVuSans-56" transform="translate(222.015625 0)"/>
     <use xlink:href="#DejaVuSans-10" transform="translate(274.109375 0)"/>
     <use xlink:href="#DejaVuSans-56" transform="translate(310.1875 0)"/>
     <use xlink:href="#DejaVuSans-4b" transform="translate(362.28125 0)"/>
     <use xlink:href="#DejaVuSans-52" transform="translate(425.65625 0)"/>
     <use xlink:href="#DejaVuSans-55" transform="translate(486.84375 0)"/>
     <use xlink:href="#DejaVuSans-48" transform="translate(525.75 0)"/>
     <use xlink:href="#DejaVuSans-3" transform="translate(587.28125 0)"/>
     <use xlink:href="#DejaVuSans-47" transform="translate(619.0625 0)"/>
     <use xlink:href="#DejaVuSans-4c" transform="translate(682.546875 0)"/>
     <use xlink:href="#DejaVuSans-56" transform="translate(710.328125 0)"/>
     <use xlink:href="#DejaVuSans-57" transform="translate(762.421875 0)"/>
     <use xlink:href="#DejaVuSans-44" transform="translate(801.625 0)"/>
     <use xlink:href="#DejaVuSans-51" transform="translate(862.90625 0)"/>
     <use xlink:href="#DejaVuSans-46" transform="translate(926.28125 0)"/>
     <use xlink:href="#DejaVuSans-48" transform="translate(981.265625 0)"/>
    </g>
   </g>
   <g id="line2d_3">
    <path d="M 100.026087 107.377778 
L 796.221739 107.377778 
" clip-path="url(#pa3177fae93)" style="fill: none; stroke-dasharray: 5.2,5.2; stroke-dashoffset: 0; stroke: #7b6642; stroke-width: 1.3"/>
   </g>
   <g id="patch_4">
    <path d="M 100.026087 333.628232 
L 146.43913 333.628232 
L 146.43913 107.377778 
L 100.026087 107.377778 
z
" clip-path="url(#pa3177fae93)" style="fill: #e9a86c; opacity: 0.55; stroke: #a5541b; stroke-width: 1.5; stroke-linejoin: miter"/>
   </g>
   <g id="patch_5">
    <path d="M 378.504348 342.217547 
L 424.917391 342.217547 
L 424.917391 107.377778 
L 378.504348 107.377778 
z
" clip-path="url(#pa3177fae93)" style="fill: #e9a86c; opacity: 0.55; stroke: #a5541b; stroke-width: 1.5; stroke-linejoin: miter"/>
   </g>
   <g id="patch_6">
    <path d="M 656.982609 345.705287 
L 703.395652 345.705287 
L 703.395652 107.377778 
L 656.982609 107.377778 
z
" clip-path="url(#pa3177fae93)" style="fill: #e9a86c; opacity: 0.55; stroke: #a5541b; stroke-width: 1.5; stroke-linejoin: miter"/>
   </g>
   <g id="legend_1">
    <g id="patch_7">
     <path d="M 26.66 35.812742 
L 207.89625 35.812742 
Q 209.79625 35.812742 209.79625 33.912742 
L 209.79625 20.612 
Q 209.79625 18.712 207.89625 18.712 
L 26.66 18.712 
Q 24.76 18.712 24.76 20.612 
L 24.76 33.912742 
Q 24.76 35.812742 26.66 35.812742 
z
" style="fill: #fffdf7; opacity: 0.95; stroke: #c8b893; stroke-linejoin: miter"/>
    </g>
    <g id="patch_8">
     <path d="M 28.56 29.730516 
L 47.56 29.730516 
L 47.56 23.080516 
L 28.56 23.080516 
z
" style="fill: #e9a86c; opacity: 0.7; stroke: #a5541b; stroke-linejoin: miter"/>
    </g>
    <g id="text_5">
     <!-- 5 × 10 m sampling unit (50 m²) -->
     <g transform="translate(55.16 29.730516) scale(0.095 -0.095)">
      <defs>
       <path id="DejaVuSans-18" d="M 691 4666 
L 3169 4666 
L 3169 4134 
L 1269 4134 
L 1269 2991 
Q 1406 3038 1543 3061 
Q 1681 3084 1819 3084 
Q 2600 3084 3056 2656 
Q 3513 2228 3513 1497 
Q 3513 744 3044 326 
Q 2575 -91 1722 -91 
Q 1428 -91 1123 -41 
Q 819 9 494 109 
L 494 744 
Q 775 591 1075 516 
Q 1375 441 1709 441 
Q 2250 441 2565 725 
Q 2881 1009 2881 1497 
Q 2881 1984 2565 2268 
Q 2250 2553 1709 2553 
Q 1456 2553 1204 2497 
Q 953 2441 691 2322 
L 691 4666 
z
" transform="scale(0.015625)"/>
       <path id="DejaVuSans-99" d="M 4488 3438 
L 3059 2003 
L 4488 575 
L 4116 197 
L 2681 1631 
L 1247 197 
L 878 575 
L 2303 2003 
L 878 3438 
L 1247 3816 
L 2681 2381 
L 4116 3816 
L 4488 3438 
z
" transform="scale(0.015625)"/>
       <path id="DejaVuSans-14" d="M 794 531 
L 1825 531 
L 1825 4091 
L 703 3866 
L 703 4441 
L 1819 4666 
L 2450 4666 
L 2450 531 
L 3481 531 
L 3481 0 
L 794 0 
L 794 531 
z
" transform="scale(0.015625)"/>
       <path id="DejaVuSans-13" d="M 2034 4250 
Q 1547 4250 1301 3770 
Q 1056 3291 1056 2328 
Q 1056 1369 1301 889 
Q 1547 409 2034 409 
Q 2525 409 2770 889 
Q 3016 1369 3016 2328 
Q 3016 3291 2770 3770 
Q 2525 4250 2034 4250 
z
M 2034 4750 
Q 2819 4750 3233 4129 
Q 3647 3509 3647 2328 
Q 3647 1150 3233 529 
Q 2819 -91 2034 -91 
Q 1250 -91 836 529 
Q 422 1150 422 2328 
Q 422 3509 836 4129 
Q 1250 4750 2034 4750 
z
" transform="scale(0.015625)"/>
       <path id="DejaVuSans-58" d="M 544 1381 
L 544 3500 
L 1119 3500 
L 1119 1403 
Q 1119 906 1312 657 
Q 1506 409 1894 409 
Q 2359 409 2629 706 
Q 2900 1003 2900 1516 
L 2900 3500 
L 3475 3500 
L 3475 0 
L 2900 0 
L 2900 538 
Q 2691 219 2414 64 
Q 2138 -91 1772 -91 
Q 1169 -91 856 284 
Q 544 659 544 1381 
z
M 1991 3584 
L 1991 3584 
z
" transform="scale(0.015625)"/>
       <path id="DejaVuSans-b" d="M 1984 4856 
Q 1566 4138 1362 3434 
Q 1159 2731 1159 2009 
Q 1159 1288 1364 580 
Q 1569 -128 1984 -844 
L 1484 -844 
Q 1016 -109 783 600 
Q 550 1309 550 2009 
Q 550 2706 781 3412 
Q 1013 4119 1484 4856 
L 1984 4856 
z
" transform="scale(0.015625)"/>
       <path id="DejaVuSans-74" d="M 838 2444 
L 2163 2444 
L 2163 2088 
L 294 2088 
L 294 2431 
Q 400 2528 597 2703 
Q 1672 3656 1672 3950 
Q 1672 4156 1509 4282 
Q 1347 4409 1081 4409 
Q 919 4409 728 4354 
Q 538 4300 313 4191 
L 313 4575 
Q 553 4663 761 4706 
Q 969 4750 1147 4750 
Q 1600 4750 1872 4544 
Q 2144 4338 2144 4000 
Q 2144 3566 1109 2678 
Q 934 2528 838 2444 
z
" transform="scale(0.015625)"/>
       <path id="DejaVuSans-c" d="M 513 4856 
L 1013 4856 
Q 1481 4119 1714 3412 
Q 1947 2706 1947 2009 
Q 1947 1309 1714 600 
Q 1481 -109 1013 -844 
L 513 -844 
Q 928 -128 1133 580 
Q 1338 1288 1338 2009 
Q 1338 2731 1133 3434 
Q 928 4138 513 4856 
z
" transform="scale(0.015625)"/>
      </defs>
      <use xlink:href="#DejaVuSans-18"/>
      <use xlink:href="#DejaVuSans-3" transform="translate(63.625 0)"/>
      <use xlink:href="#DejaVuSans-99" transform="translate(95.40625 0)"/>
      <use xlink:href="#DejaVuSans-3" transform="translate(179.203125 0)"/>
      <use xlink:href="#DejaVuSans-14" transform="translate(210.984375 0)"/>
      <use xlink:href="#DejaVuSans-13" transform="translate(274.609375 0)"/>
      <use xlink:href="#DejaVuSans-3" transform="translate(338.234375 0)"/>
      <use xlink:href="#DejaVuSans-50" transform="translate(370.015625 0)"/>
      <use xlink:href="#DejaVuSans-3" transform="translate(467.421875 0)"/>
      <use xlink:href="#DejaVuSans-56" transform="translate(499.203125 0)"/>
      <use xlink:href="#DejaVuSans-44" transform="translate(551.296875 0)"/>
      <use xlink:href="#DejaVuSans-50" transform="translate(612.578125 0)"/>
      <use xlink:href="#DejaVuSans-53" transform="translate(709.984375 0)"/>
      <use xlink:href="#DejaVuSans-4f" transform="translate(773.46875 0)"/>
      <use xlink:href="#DejaVuSans-4c" transform="translate(801.25 0)"/>
      <use xlink:href="#DejaVuSans-51" transform="translate(829.03125 0)"/>
      <use xlink:href="#DejaVuSans-4a" transform="translate(892.40625 0)"/>
      <use xlink:href="#DejaVuSans-3" transform="translate(955.890625 0)"/>
      <use xlink:href="#DejaVuSans-58" transform="translate(987.671875 0)"/>
      <use xlink:href="#DejaVuSans-51" transform="translate(1051.046875 0)"/>
      <use xlink:href="#DejaVuSans-4c" transform="translate(1114.421875 0)"/>
      <use xlink:href="#DejaVuSans-57" transform="translate(1142.203125 0)"/>
      <use xlink:href="#DejaVuSans-3" transform="translate(1181.40625 0)"/>
      <use xlink:href="#DejaVuSans-b" transform="translate(1213.1875 0)"/>
      <use xlink:href="#DejaVuSans-18" transform="translate(1252.203125 0)"/>
      <use xlink:href="#DejaVuSans-13" transform="translate(1315.828125 0)"/>
      <use xlink:href="#DejaVuSans-3" transform="translate(1379.453125 0)"/>
      <use xlink:href="#DejaVuSans-50" transform="translate(1411.234375 0)"/>
      <use xlink:href="#DejaVuSans-74" transform="translate(1508.640625 0)"/>
      <use xlink:href="#DejaVuSans-c" transform="translate(1548.734375 0)"/>
     </g>
    </g>
   </g>
   <g id="line2d_4">
    <path d="M 100.026087 333.628232 
L 100.026087 107.377778 
" clip-path="url(#pa3177fae93)" style="fill: none; stroke-dasharray: 3.75,3.75; stroke-dashoffset: 0; stroke: #7a3d16; stroke-width: 1.25"/>
   </g>
   <g id="line2d_5">
    <path d="M 146.43913 333.628232 
L 146.43913 107.377778 
" clip-path="url(#pa3177fae93)" style="fill: none; stroke-dasharray: 3.75,3.75; stroke-dashoffset: 0; stroke: #7a3d16; stroke-width: 1.25"/>
   </g>
   <g id="line2d_6">
    <path d="M 378.504348 342.217547 
L 378.504348 107.377778 
" clip-path="url(#pa3177fae93)" style="fill: none; stroke-dasharray: 3.75,3.75; stroke-dashoffset: 0; stroke: #7a3d16; stroke-width: 1.25"/>
   </g>
   <g id="line2d_7">
    <path d="M 424.917391 342.217547 
L 424.917391 107.377778 
" clip-path="url(#pa3177fae93)" style="fill: none; stroke-dasharray: 3.75,3.75; stroke-dashoffset: 0; stroke: #7a3d16; stroke-width: 1.25"/>
   </g>
   <g id="line2d_8">
    <path d="M 656.982609 345.705287 
L 656.982609 107.377778 
" clip-path="url(#pa3177fae93)" style="fill: none; stroke-dasharray: 3.75,3.75; stroke-dashoffset: 0; stroke: #7a3d16; stroke-width: 1.25"/>
   </g>
   <g id="line2d_9">
    <path d="M 703.395652 345.705287 
L 703.395652 107.377778 
" clip-path="url(#pa3177fae93)" style="fill: none; stroke-dasharray: 3.75,3.75; stroke-dashoffset: 0; stroke: #7a3d16; stroke-width: 1.25"/>
   </g>
   <g id="text_6">
    <g id="patch_9">
     <path d="M 394.389343 374.363194 
L 501.858483 374.363194 
Q 504.483483 374.363194 504.483483 371.738194 
L 504.483483 361.237374 
Q 504.483483 358.612374 501.858483 358.612374 
L 394.389343 358.612374 
Q 391.764343 358.612374 391.764343 361.237374 
L 391.764343 371.738194 
Q 391.764343 374.363194 394.389343 374.363194 
z
" style="fill: #eaf7fb; opacity: 0.9"/>
    </g>
    <!-- Low-tide water edge -->
    <g style="fill: #24566a" transform="translate(394.389343 369.215733) scale(0.105 -0.105)">
     <use xlink:href="#DejaVuSans-2f"/>
     <use xlink:href="#DejaVuSans-52" transform="translate(53.96875 0)"/>
     <use xlink:href="#DejaVuSans-5a" transform="translate(115.15625 0)"/>
     <use xlink:href="#DejaVuSans-10" transform="translate(196.9375 0)"/>
     <use xlink:href="#DejaVuSans-57" transform="translate(233.015625 0)"/>
     <use xlink:href="#DejaVuSans-4c" transform="translate(272.21875 0)"/>
     <use xlink:href="#DejaVuSans-47" transform="translate(300 0)"/>
     <use xlink:href="#DejaVuSans-48" transform="translate(363.484375 0)"/>
     <use xlink:href="#DejaVuSans-3" transform="translate(425.015625 0)"/>
     <use xlink:href="#DejaVuSans-5a" transform="translate(456.796875 0)"/>
     <use xlink:href="#DejaVuSans-44" transform="translate(538.578125 0)"/>
     <use xlink:href="#DejaVuSans-57" transform="translate(599.859375 0)"/>
     <use xlink:href="#DejaVuSans-48" transform="translate(639.0625 0)"/>
     <use xlink:href="#DejaVuSans-55" transform="translate(700.59375 0)"/>
     <use xlink:href="#DejaVuSans-3" transform="translate(741.703125 0)"/>
     <use xlink:href="#DejaVuSans-48" transform="translate(773.484375 0)"/>
     <use xlink:href="#DejaVuSans-47" transform="translate(835.015625 0)"/>
     <use xlink:href="#DejaVuSans-4a" transform="translate(898.5 0)"/>
     <use xlink:href="#DejaVuSans-48" transform="translate(961.984375 0)"/>
    </g>
   </g>
   <g id="text_7">
    <!-- Transect 1 -->
    <g style="fill: #54280d" transform="translate(94.031046 144.956276) scale(0.1 -0.1)">
     <defs>
      <path id="DejaVuSans-Bold-37" d="M 31 4666 
L 4331 4666 
L 4331 3756 
L 2784 3756 
L 2784 0 
L 1581 0 
L 1581 3756 
L 31 3756 
L 31 4666 
z
" transform="scale(0.015625)"/>
      <path id="DejaVuSans-Bold-55" d="M 3138 2547 
Q 2991 2616 2845 2648 
Q 2700 2681 2553 2681 
Q 2122 2681 1889 2404 
Q 1656 2128 1656 1613 
L 1656 0 
L 538 0 
L 538 3500 
L 1656 3500 
L 1656 2925 
Q 1872 3269 2151 3426 
Q 2431 3584 2822 3584 
Q 2878 3584 2943 3579 
Q 3009 3575 3134 3559 
L 3138 2547 
z
" transform="scale(0.015625)"/>
      <path id="DejaVuSans-Bold-44" d="M 2106 1575 
Q 1756 1575 1579 1456 
Q 1403 1338 1403 1106 
Q 1403 894 1545 773 
Q 1688 653 1941 653 
Q 2256 653 2472 879 
Q 2688 1106 2688 1447 
L 2688 1575 
L 2106 1575 
z
M 3816 1997 
L 3816 0 
L 2688 0 
L 2688 519 
Q 2463 200 2181 54 
Q 1900 -91 1497 -91 
Q 953 -91 614 226 
Q 275 544 275 1050 
Q 275 1666 698 1953 
Q 1122 2241 2028 2241 
L 2688 2241 
L 2688 2328 
Q 2688 2594 2478 2717 
Q 2269 2841 1825 2841 
Q 1466 2841 1156 2769 
Q 847 2697 581 2553 
L 581 3406 
Q 941 3494 1303 3539 
Q 1666 3584 2028 3584 
Q 2975 3584 3395 3211 
Q 3816 2838 3816 1997 
z
" transform="scale(0.015625)"/>
      <path id="DejaVuSans-Bold-51" d="M 4056 2131 
L 4056 0 
L 2931 0 
L 2931 347 
L 2931 1631 
Q 2931 2084 2911 2256 
Q 2891 2428 2841 2509 
Q 2775 2619 2662 2680 
Q 2550 2741 2406 2741 
Q 2056 2741 1856 2470 
Q 1656 2200 1656 1722 
L 1656 0 
L 538 0 
L 538 3500 
L 1656 3500 
L 1656 2988 
Q 1909 3294 2193 3439 
Q 2478 3584 2822 3584 
Q 3428 3584 3742 3212 
Q 4056 2841 4056 2131 
z
" transform="scale(0.015625)"/>
      <path id="DejaVuSans-Bold-56" d="M 3272 3391 
L 3272 2541 
Q 2913 2691 2578 2766 
Q 2244 2841 1947 2841 
Q 1628 2841 1473 2761 
Q 1319 2681 1319 2516 
Q 1319 2381 1436 2309 
Q 1553 2238 1856 2203 
L 2053 2175 
Q 2913 2066 3209 1816 
Q 3506 1566 3506 1031 
Q 3506 472 3093 190 
Q 2681 -91 1863 -91 
Q 1516 -91 1145 -36 
Q 775 19 384 128 
L 384 978 
Q 719 816 1070 734 
Q 1422 653 1784 653 
Q 2113 653 2278 743 
Q 2444 834 2444 1013 
Q 2444 1163 2330 1236 
Q 2216 1309 1875 1350 
L 1678 1375 
Q 931 1469 631 1722 
Q 331 1975 331 2491 
Q 331 3047 712 3315 
Q 1094 3584 1881 3584 
Q 2191 3584 2531 3537 
Q 2872 3491 3272 3391 
z
" transform="scale(0.015625)"/>
      <path id="DejaVuSans-Bold-48" d="M 4031 1759 
L 4031 1441 
L 1416 1441 
Q 1456 1047 1700 850 
Q 1944 653 2381 653 
Q 2734 653 3104 758 
Q 3475 863 3866 1075 
L 3866 213 
Q 3469 63 3072 -14 
Q 2675 -91 2278 -91 
Q 1328 -91 801 392 
Q 275 875 275 1747 
Q 275 2603 792 3093 
Q 1309 3584 2216 3584 
Q 3041 3584 3536 3087 
Q 4031 2591 4031 1759 
z
M 2881 2131 
Q 2881 2450 2695 2645 
Q 2509 2841 2209 2841 
Q 1884 2841 1681 2658 
Q 1478 2475 1428 2131 
L 2881 2131 
z
" transform="scale(0.015625)"/>
      <path id="DejaVuSans-Bold-46" d="M 3366 3391 
L 3366 2478 
Q 3138 2634 2908 2709 
Q 2678 2784 2431 2784 
Q 1963 2784 1702 2511 
Q 1441 2238 1441 1747 
Q 1441 1256 1702 982 
Q 1963 709 2431 709 
Q 2694 709 2930 787 
Q 3166 866 3366 1019 
L 3366 103 
Q 3103 6 2833 -42 
Q 2563 -91 2291 -91 
Q 1344 -91 809 395 
Q 275 881 275 1747 
Q 275 2613 809 3098 
Q 1344 3584 2291 3584 
Q 2566 3584 2833 3536 
Q 3100 3488 3366 3391 
z
" transform="scale(0.015625)"/>
      <path id="DejaVuSans-Bold-57" d="M 1759 4494 
L 1759 3500 
L 2913 3500 
L 2913 2700 
L 1759 2700 
L 1759 1216 
Q 1759 972 1856 886 
Q 1953 800 2241 800 
L 2816 800 
L 2816 0 
L 1856 0 
Q 1194 0 917 276 
Q 641 553 641 1216 
L 641 2700 
L 84 2700 
L 84 3500 
L 641 3500 
L 641 4494 
L 1759 4494 
z
" transform="scale(0.015625)"/>
      <path id="DejaVuSans-Bold-3" transform="scale(0.015625)"/>
      <path id="DejaVuSans-Bold-14" d="M 750 831 
L 1813 831 
L 1813 3847 
L 722 3622 
L 722 4441 
L 1806 4666 
L 2950 4666 
L 2950 831 
L 4013 831 
L 4013 0 
L 750 0 
L 750 831 
z
" transform="scale(0.015625)"/>
     </defs>
     <use xlink:href="#DejaVuSans-Bold-37"/>
     <use xlink:href="#DejaVuSans-Bold-55" transform="translate(57.234375 0)"/>
     <use xlink:href="#DejaVuSans-Bold-44" transform="translate(106.546875 0)"/>
     <use xlink:href="#DejaVuSans-Bold-51" transform="translate(174.03125 0)"/>
     <use xlink:href="#DejaVuSans-Bold-56" transform="translate(245.21875 0)"/>
     <use xlink:href="#DejaVuSans-Bold-48" transform="translate(304.734375 0)"/>
     <use xlink:href="#DejaVuSans-Bold-46" transform="translate(372.5625 0)"/>
     <use xlink:href="#DejaVuSans-Bold-57" transform="translate(431.84375 0)"/>
     <use xlink:href="#DejaVuSans-Bold-3" transform="translate(479.640625 0)"/>
     <use xlink:href="#DejaVuSans-Bold-14" transform="translate(514.453125 0)"/>
    </g>
    <!-- (0–5 m) -->
    <g style="fill: #54280d" transform="translate(102.253702 156.958229) scale(0.1 -0.1)">
     <defs>
      <path id="DejaVuSans-Bold-b" d="M 2413 -844 
L 1484 -844 
Q 1006 -72 778 623 
Q 550 1319 550 2003 
Q 550 2688 779 3389 
Q 1009 4091 1484 4856 
L 2413 4856 
Q 2013 4116 1813 3408 
Q 1613 2700 1613 2009 
Q 1613 1319 1811 609 
Q 2009 -100 2413 -844 
z
" transform="scale(0.015625)"/>
      <path id="DejaVuSans-Bold-13" d="M 2944 2338 
Q 2944 3213 2780 3570 
Q 2616 3928 2228 3928 
Q 1841 3928 1675 3570 
Q 1509 3213 1509 2338 
Q 1509 1453 1675 1090 
Q 1841 728 2228 728 
Q 2613 728 2778 1090 
Q 2944 1453 2944 2338 
z
M 4147 2328 
Q 4147 1169 3647 539 
Q 3147 -91 2228 -91 
Q 1306 -91 806 539 
Q 306 1169 306 2328 
Q 306 3491 806 4120 
Q 1306 4750 2228 4750 
Q 3147 4750 3647 4120 
Q 4147 3491 4147 2328 
z
" transform="scale(0.015625)"/>
      <path id="DejaVuSans-Bold-af5" d="M 344 2156 
L 2856 2156 
L 2856 1350 
L 344 1350 
L 344 2156 
z
" transform="scale(0.015625)"/>
      <path id="DejaVuSans-Bold-18" d="M 678 4666 
L 3669 4666 
L 3669 3781 
L 1638 3781 
L 1638 3059 
Q 1775 3097 1914 3117 
Q 2053 3138 2203 3138 
Q 3056 3138 3531 2711 
Q 4006 2284 4006 1522 
Q 4006 766 3489 337 
Q 2972 -91 2053 -91 
Q 1656 -91 1267 -14 
Q 878 63 494 219 
L 494 1166 
Q 875 947 1217 837 
Q 1559 728 1863 728 
Q 2300 728 2551 942 
Q 2803 1156 2803 1522 
Q 2803 1891 2551 2103 
Q 2300 2316 1863 2316 
Q 1603 2316 1309 2248 
Q 1016 2181 678 2041 
L 678 4666 
z
" transform="scale(0.015625)"/>
      <path id="DejaVuSans-Bold-50" d="M 3781 2919 
Q 3994 3244 4286 3414 
Q 4578 3584 4928 3584 
Q 5531 3584 5847 3212 
Q 6163 2841 6163 2131 
L 6163 0 
L 5038 0 
L 5038 1825 
Q 5041 1866 5042 1909 
Q 5044 1953 5044 2034 
Q 5044 2406 4934 2573 
Q 4825 2741 4581 2741 
Q 4263 2741 4089 2478 
Q 3916 2216 3909 1719 
L 3909 0 
L 2784 0 
L 2784 1825 
Q 2784 2406 2684 2573 
Q 2584 2741 2328 2741 
Q 2006 2741 1831 2477 
Q 1656 2213 1656 1722 
L 1656 0 
L 531 0 
L 531 3500 
L 1656 3500 
L 1656 2988 
Q 1863 3284 2130 3434 
Q 2397 3584 2719 3584 
Q 3081 3584 3359 3409 
Q 3638 3234 3781 2919 
z
" transform="scale(0.015625)"/>
      <path id="DejaVuSans-Bold-c" d="M 513 -844 
Q 913 -100 1113 609 
Q 1313 1319 1313 2009 
Q 1313 2700 1113 3408 
Q 913 4116 513 4856 
L 1441 4856 
Q 1916 4091 2145 3389 
Q 2375 2688 2375 2003 
Q 2375 1319 2147 623 
Q 1919 -72 1441 -844 
L 513 -844 
z
" transform="scale(0.015625)"/>
     </defs>
     <use xlink:href="#DejaVuSans-Bold-b"/>
     <use xlink:href="#DejaVuSans-Bold-13" transform="translate(45.703125 0)"/>
     <use xlink:href="#DejaVuSans-Bold-af5" transform="translate(115.28125 0)"/>
     <use xlink:href="#DejaVuSans-Bold-18" transform="translate(165.28125 0)"/>
     <use xlink:href="#DejaVuSans-Bold-3" transform="translate(234.859375 0)"/>
     <use xlink:href="#DejaVuSans-Bold-50" transform="translate(269.671875 0)"/>
     <use xlink:href="#DejaVuSans-Bold-c" transform="translate(373.875 0)"/>
    </g>
   </g>
   <g id="patch_10">
    <path d="M 106.675125 233.738384 
Q 123.231936 233.738384 139.788748 233.738384 
" clip-path="url(#pa3177fae93)" style="fill: none; stroke: #263238; stroke-width: 1.25; stroke-linecap: round"/>
    <path d="M 111.475125 236.138384 
L 106.675125 233.738384 
L 111.475125 231.338384 
" clip-path="url(#pa3177fae93)" style="fill: none; stroke: #263238; stroke-width: 1.25; stroke-linecap: round"/>
    <path d="M 134.988748 231.338384 
L 139.788748 233.738384 
L 134.988748 236.138384 
" clip-path="url(#pa3177fae93)" style="fill: none; stroke: #263238; stroke-width: 1.25; stroke-linecap: round"/>
   </g>
   <g id="text_8">
    <!-- Transect 7 -->
    <g style="fill: #54280d" transform="translate(372.509307 144.956276) scale(0.1 -0.1)">
     <defs>
      <path id="DejaVuSans-Bold-1a" d="M 428 4666 
L 3944 4666 
L 3944 3988 
L 2125 0 
L 953 0 
L 2675 3781 
L 428 3781 
L 428 4666 
z
" transform="scale(0.015625)"/>
     </defs>
     <use xlink:href="#DejaVuSans-Bold-37"/>
     <use xlink:href="#DejaVuSans-Bold-55" transform="translate(57.234375 0)"/>
     <use xlink:href="#DejaVuSans-Bold-44" transform="translate(106.546875 0)"/>
     <use xlink:href="#DejaVuSans-Bold-51" transform="translate(174.03125 0)"/>
     <use xlink:href="#DejaVuSans-Bold-56" transform="translate(245.21875 0)"/>
     <use xlink:href="#DejaVuSans-Bold-48" transform="translate(304.734375 0)"/>
     <use xlink:href="#DejaVuSans-Bold-46" transform="translate(372.5625 0)"/>
     <use xlink:href="#DejaVuSans-Bold-57" transform="translate(431.84375 0)"/>
     <use xlink:href="#DejaVuSans-Bold-3" transform="translate(479.640625 0)"/>
     <use xlink:href="#DejaVuSans-Bold-1a" transform="translate(514.453125 0)"/>
    </g>
    <!-- (30–35 m) -->
    <g style="fill: #54280d" transform="translate(373.774151 156.958229) scale(0.1 -0.1)">
     <defs>
      <path id="DejaVuSans-Bold-16" d="M 2981 2516 
Q 3453 2394 3698 2092 
Q 3944 1791 3944 1325 
Q 3944 631 3412 270 
Q 2881 -91 1863 -91 
Q 1503 -91 1142 -33 
Q 781 25 428 141 
L 428 1069 
Q 766 900 1098 814 
Q 1431 728 1753 728 
Q 2231 728 2486 893 
Q 2741 1059 2741 1369 
Q 2741 1688 2480 1852 
Q 2219 2016 1709 2016 
L 1228 2016 
L 1228 2791 
L 1734 2791 
Q 2188 2791 2409 2933 
Q 2631 3075 2631 3366 
Q 2631 3634 2415 3781 
Q 2200 3928 1806 3928 
Q 1516 3928 1219 3862 
Q 922 3797 628 3669 
L 628 4550 
Q 984 4650 1334 4700 
Q 1684 4750 2022 4750 
Q 2931 4750 3382 4451 
Q 3834 4153 3834 3553 
Q 3834 3144 3618 2883 
Q 3403 2622 2981 2516 
z
" transform="scale(0.015625)"/>
     </defs>
     <use xlink:href="#DejaVuSans-Bold-b"/>
     <use xlink:href="#DejaVuSans-Bold-16" transform="translate(45.703125 0)"/>
     <use xlink:href="#DejaVuSans-Bold-13" transform="translate(115.28125 0)"/>
     <use xlink:href="#DejaVuSans-Bold-af5" transform="translate(184.859375 0)"/>
     <use xlink:href="#DejaVuSans-Bold-16" transform="translate(234.859375 0)"/>
     <use xlink:href="#DejaVuSans-Bold-18" transform="translate(304.4375 0)"/>
     <use xlink:href="#DejaVuSans-Bold-3" transform="translate(374.015625 0)"/>
     <use xlink:href="#DejaVuSans-Bold-50" transform="translate(408.828125 0)"/>
     <use xlink:href="#DejaVuSans-Bold-c" transform="translate(513.03125 0)"/>
    </g>
   </g>
   <g id="patch_11">
    <path d="M 385.153386 233.738384 
Q 401.710197 233.738384 418.267009 233.738384 
" clip-path="url(#pa3177fae93)" style="fill: none; stroke: #263238; stroke-width: 1.25; stroke-linecap: round"/>
    <path d="M 389.953386 236.138384 
L 385.153386 233.738384 
L 389.953386 231.338384 
" clip-path="url(#pa3177fae93)" style="fill: none; stroke: #263238; stroke-width: 1.25; stroke-linecap: round"/>
    <path d="M 413.467009 231.338384 
L 418.267009 233.738384 
L 413.467009 236.138384 
" clip-path="url(#pa3177fae93)" style="fill: none; stroke: #263238; stroke-width: 1.25; stroke-linecap: round"/>
   </g>
   <g id="text_9">
    <!-- Transect 13 -->
    <g style="fill: #54280d" transform="translate(647.508662 144.956276) scale(0.1 -0.1)">
     <use xlink:href="#DejaVuSans-Bold-37"/>
     <use xlink:href="#DejaVuSans-Bold-55" transform="translate(57.234375 0)"/>
     <use xlink:href="#DejaVuSans-Bold-44" transform="translate(106.546875 0)"/>
     <use xlink:href="#DejaVuSans-Bold-51" transform="translate(174.03125 0)"/>
     <use xlink:href="#DejaVuSans-Bold-56" transform="translate(245.21875 0)"/>
     <use xlink:href="#DejaVuSans-Bold-48" transform="translate(304.734375 0)"/>
     <use xlink:href="#DejaVuSans-Bold-46" transform="translate(372.5625 0)"/>
     <use xlink:href="#DejaVuSans-Bold-57" transform="translate(431.84375 0)"/>
     <use xlink:href="#DejaVuSans-Bold-3" transform="translate(479.640625 0)"/>
     <use xlink:href="#DejaVuSans-Bold-14" transform="translate(514.453125 0)"/>
     <use xlink:href="#DejaVuSans-Bold-16" transform="translate(584.03125 0)"/>
    </g>
    <!-- (60–65 m) -->
    <g style="fill: #54280d" transform="translate(652.252412 156.958229) scale(0.1 -0.1)">
     <defs>
      <path id="DejaVuSans-Bold-19" d="M 2316 2303 
Q 2000 2303 1842 2098 
Q 1684 1894 1684 1484 
Q 1684 1075 1842 870 
Q 2000 666 2316 666 
Q 2634 666 2792 870 
Q 2950 1075 2950 1484 
Q 2950 1894 2792 2098 
Q 2634 2303 2316 2303 
z
M 3803 4544 
L 3803 3681 
Q 3506 3822 3243 3889 
Q 2981 3956 2731 3956 
Q 2194 3956 1894 3657 
Q 1594 3359 1544 2772 
Q 1750 2925 1990 3001 
Q 2231 3078 2516 3078 
Q 3231 3078 3670 2659 
Q 4109 2241 4109 1563 
Q 4109 813 3618 361 
Q 3128 -91 2303 -91 
Q 1394 -91 895 523 
Q 397 1138 397 2266 
Q 397 3422 980 4083 
Q 1563 4744 2578 4744 
Q 2900 4744 3203 4694 
Q 3506 4644 3803 4544 
z
" transform="scale(0.015625)"/>
     </defs>
     <use xlink:href="#DejaVuSans-Bold-b"/>
     <use xlink:href="#DejaVuSans-Bold-19" transform="translate(45.703125 0)"/>
     <use xlink:href="#DejaVuSans-Bold-13" transform="translate(115.28125 0)"/>
     <use xlink:href="#DejaVuSans-Bold-af5" transform="translate(184.859375 0)"/>
     <use xlink:href="#DejaVuSans-Bold-19" transform="translate(234.859375 0)"/>
     <use xlink:href="#DejaVuSans-Bold-18" transform="translate(304.4375 0)"/>
     <use xlink:href="#DejaVuSans-Bold-3" transform="translate(374.015625 0)"/>
     <use xlink:href="#DejaVuSans-Bold-50" transform="translate(408.828125 0)"/>
     <use xlink:href="#DejaVuSans-Bold-c" transform="translate(513.03125 0)"/>
    </g>
   </g>
   <g id="patch_12">
    <path d="M 663.631647 233.738384 
Q 680.188458 233.738384 696.74527 233.738384 
" clip-path="url(#pa3177fae93)" style="fill: none; stroke: #263238; stroke-width: 1.25; stroke-linecap: round"/>
    <path d="M 668.431647 236.138384 
L 663.631647 233.738384 
L 668.431647 231.338384 
" clip-path="url(#pa3177fae93)" style="fill: none; stroke: #263238; stroke-width: 1.25; stroke-linecap: round"/>
    <path d="M 691.94527 231.338384 
L 696.74527 233.738384 
L 691.94527 236.138384 
" clip-path="url(#pa3177fae93)" style="fill: none; stroke: #263238; stroke-width: 1.25; stroke-linecap: round"/>
   </g>
   <g id="patch_13">
    <path d="M 70.321739 332.79479 
Q 70.321739 221.783529 70.321739 110.772268 
" clip-path="url(#pa3177fae93)" style="fill: none; stroke: #263238; stroke-width: 1.25; stroke-linecap: round"/>
    <path d="M 72.721739 327.99479 
L 70.321739 332.79479 
L 67.921739 327.99479 
" clip-path="url(#pa3177fae93)" style="fill: none; stroke: #263238; stroke-width: 1.25; stroke-linecap: round"/>
    <path d="M 67.921739 115.572268 
L 70.321739 110.772268 
L 72.721739 115.572268 
" clip-path="url(#pa3177fae93)" style="fill: none; stroke: #263238; stroke-width: 1.25; stroke-linecap: round"/>
   </g>
   <g id="patch_14">
    <path d="M 103.423429 404.49596 
Q 448.124137 404.49596 792.824846 404.49596 
" clip-path="url(#pa3177fae93)" style="fill: none; stroke: #263238; stroke-width: 1.25; stroke-linecap: round"/>
    <path d="M 108.223429 406.89596 
L 103.423429 404.49596 
L 108.223429 402.09596 
" clip-path="url(#pa3177fae93)" style="fill: none; stroke: #263238; stroke-width: 1.25; stroke-linecap: round"/>
    <path d="M 788.024846 402.09596 
L 792.824846 404.49596 
L 788.024846 406.89596 
" clip-path="url(#pa3177fae93)" style="fill: none; stroke: #263238; stroke-width: 1.25; stroke-linecap: round"/>
   </g>
   <g id="text_10">
    <!-- 5 m -->
    <g style="fill: #263238" transform="translate(113.591984 225.407555) scale(0.1 -0.1)">
     <use xlink:href="#DejaVuSans-18"/>
     <use xlink:href="#DejaVuSans-3" transform="translate(63.625 0)"/>
     <use xlink:href="#DejaVuSans-50" transform="translate(95.40625 0)"/>
    </g>
   </g>
   <g id="text_11">
    <!-- 5 m -->
    <g style="fill: #263238" transform="translate(392.070245 225.407555) scale(0.1 -0.1)">
     <use xlink:href="#DejaVuSans-18"/>
     <use xlink:href="#DejaVuSans-3" transform="translate(63.625 0)"/>
     <use xlink:href="#DejaVuSans-50" transform="translate(95.40625 0)"/>
    </g>
   </g>
   <g id="text_12">
    <!-- 5 m -->
    <g style="fill: #263238" transform="translate(670.548505 225.407555) scale(0.1 -0.1)">
     <use xlink:href="#DejaVuSans-18"/>
     <use xlink:href="#DejaVuSans-3" transform="translate(63.625 0)"/>
     <use xlink:href="#DejaVuSans-50" transform="translate(95.40625 0)"/>
    </g>
   </g>
   <g id="text_13">
    <!-- 10 m -->
    <g style="fill: #263238" transform="translate(62.244395 234.607229) rotate(-90) scale(0.1 -0.1)">
     <use xlink:href="#DejaVuSans-14"/>
     <use xlink:href="#DejaVuSans-13" transform="translate(63.625 0)"/>
     <use xlink:href="#DejaVuSans-3" transform="translate(127.25 0)"/>
     <use xlink:href="#DejaVuSans-50" transform="translate(159.03125 0)"/>
    </g>
   </g>
   <g id="text_14">
    <!-- Coastal section: 75 m (not to scale) -->
    <g style="fill: #263238" transform="translate(359.038757 392.295017) scale(0.1 -0.1)">
     <defs>
      <path id="DejaVuSans-1d" d="M 750 794 
L 1409 794 
L 1409 0 
L 750 0 
L 750 794 
z
M 750 3309 
L 1409 3309 
L 1409 2516 
L 750 2516 
L 750 3309 
z
" transform="scale(0.015625)"/>
      <path id="DejaVuSans-1a" d="M 525 4666 
L 3525 4666 
L 3525 4397 
L 1831 0 
L 1172 0 
L 2766 4134 
L 525 4134 
L 525 4666 
z
" transform="scale(0.015625)"/>
     </defs>
     <use xlink:href="#DejaVuSans-26"/>
     <use xlink:href="#DejaVuSans-52" transform="translate(69.828125 0)"/>
     <use xlink:href="#DejaVuSans-44" transform="translate(131.015625 0)"/>
     <use xlink:href="#DejaVuSans-56" transform="translate(192.296875 0)"/>
     <use xlink:href="#DejaVuSans-57" transform="translate(244.390625 0)"/>
     <use xlink:href="#DejaVuSans-44" transform="translate(283.59375 0)"/>
     <use xlink:href="#DejaVuSans-4f" transform="translate(344.875 0)"/>
     <use xlink:href="#DejaVuSans-3" transform="translate(372.65625 0)"/>
     <use xlink:href="#DejaVuSans-56" transform="translate(404.4375 0)"/>
     <use xlink:href="#DejaVuSans-48" transform="translate(456.53125 0)"/>
     <use xlink:href="#DejaVuSans-46" transform="translate(518.0625 0)"/>
     <use xlink:href="#DejaVuSans-57" transform="translate(573.046875 0)"/>
     <use xlink:href="#DejaVuSans-4c" transform="translate(612.25 0)"/>
     <use xlink:href="#DejaVuSans-52" transform="translate(640.03125 0)"/>
     <use xlink:href="#DejaVuSans-51" transform="translate(701.21875 0)"/>
     <use xlink:href="#DejaVuSans-1d" transform="translate(764.59375 0)"/>
     <use xlink:href="#DejaVuSans-3" transform="translate(798.28125 0)"/>
     <use xlink:href="#DejaVuSans-1a" transform="translate(830.0625 0)"/>
     <use xlink:href="#DejaVuSans-18" transform="translate(893.6875 0)"/>
     <use xlink:href="#DejaVuSans-3" transform="translate(957.3125 0)"/>
     <use xlink:href="#DejaVuSans-50" transform="translate(989.09375 0)"/>
     <use xlink:href="#DejaVuSans-3" transform="translate(1086.5 0)"/>
     <use xlink:href="#DejaVuSans-b" transform="translate(1118.28125 0)"/>
     <use xlink:href="#DejaVuSans-51" transform="translate(1157.296875 0)"/>
     <use xlink:href="#DejaVuSans-52" transform="translate(1220.671875 0)"/>
     <use xlink:href="#DejaVuSans-57" transform="translate(1281.859375 0)"/>
     <use xlink:href="#DejaVuSans-3" transform="translate(1321.0625 0)"/>
     <use xlink:href="#DejaVuSans-57" transform="translate(1352.84375 0)"/>
     <use xlink:href="#DejaVuSans-52" transform="translate(1392.046875 0)"/>
     <use xlink:href="#DejaVuSans-3" transform="translate(1453.234375 0)"/>
     <use xlink:href="#DejaVuSans-56" transform="translate(1485.015625 0)"/>
     <use xlink:href="#DejaVuSans-46" transform="translate(1537.109375 0)"/>
     <use xlink:href="#DejaVuSans-44" transform="translate(1592.09375 0)"/>
     <use xlink:href="#DejaVuSans-4f" transform="translate(1653.375 0)"/>
     <use xlink:href="#DejaVuSans-48" transform="translate(1681.15625 0)"/>
     <use xlink:href="#DejaVuSans-c" transform="translate(1742.6875 0)"/>
    </g>
   </g>
  </g>
 </g>
 <defs>
  <clipPath id="pa3177fae93">
   <rect x="7.2" y="7.2" width="854" height="450.8"/>
  </clipPath>
 </defs>
</svg>
